<?xml version="1.0" encoding="UTF-8" standalone="no"?>
<svg
   xmlns:dc="http://purl.org/dc/elements/1.1/"
   xmlns:cc="http://creativecommons.org/ns#"
   xmlns:rdf="http://www.w3.org/1999/02/22-rdf-syntax-ns#"
   xmlns:svg="http://www.w3.org/2000/svg"
   xmlns="http://www.w3.org/2000/svg"
   xmlns:xlink="http://www.w3.org/1999/xlink"
   xmlns:sodipodi="http://sodipodi.sourceforge.net/DTD/sodipodi-0.dtd"
   xmlns:inkscape="http://www.inkscape.org/namespaces/inkscape"
   version="1.1"
   width="21.0007cm"
   height="29.700199cm"
   viewBox="0 0 82679.979 116930.03"
   id="svg838"
   sodipodi:docname="smart48-F_Mask_clean.svg"
   inkscape:version="0.92.4 5da689c313, 2019-01-14">
  <metadata
     id="metadata844">
    <rdf:RDF>
      <cc:Work
         rdf:about="">
        <dc:format>image/svg+xml</dc:format>
        <dc:type
           rdf:resource="http://purl.org/dc/dcmitype/StillImage" />
        <dc:title>SVG Picture created as smart48-F_Mask.svg date 2020/02/29 23:11:22 </dc:title>
      </cc:Work>
    </rdf:RDF>
  </metadata>
  <defs
     id="defs842" />
  <sodipodi:namedview
     pagecolor="#ffffff"
     bordercolor="#666666"
     borderopacity="1"
     objecttolerance="10"
     gridtolerance="10"
     guidetolerance="10"
     inkscape:pageopacity="0"
     inkscape:pageshadow="2"
     inkscape:window-width="1920"
     inkscape:window-height="1028"
     id="namedview840"
     showgrid="false"
     inkscape:zoom="0.77628964"
     inkscape:cx="561.26361"
     inkscape:cy="602.97226"
     inkscape:window-x="0"
     inkscape:window-y="27"
     inkscape:window-maximized="1"
     inkscape:current-layer="g2412" />
  <title
     id="title2">SVG Picture created as smart48-F_Mask.svg date 2020/02/29 23:11:22 </title>
  <desc
     id="desc4">Picture generated by PCBNEW </desc>
  <g
     style="fill:#000000;fill-opacity:1;stroke:#000000;stroke-linecap:round;stroke-linejoin:round;stroke-opacity:1"
     id="g6"
     transform="translate(0,34250.025)" />
  <g
     style="fill:#000000;fill-opacity:0;stroke:#000000;stroke-width:-0.0003937;stroke-linecap:round;stroke-linejoin:round;stroke-opacity:1"
     id="g8"
     transform="translate(0,34250.025)" />
  <g
     style="fill:#000000;fill-opacity:0;stroke:#000000;stroke-width:39.37009811;stroke-linecap:round;stroke-linejoin:round;stroke-opacity:1"
     id="g10"
     transform="translate(0,34250.025)" />
  <g
     style="fill:#000000;fill-opacity:0;stroke:#000000;stroke-width:39.37009811;stroke-linecap:round;stroke-linejoin:round;stroke-opacity:1"
     id="g16"
     transform="translate(0,34250.025)" />
  <g
     style="fill:#000000;fill-opacity:0;stroke:#000000;stroke-width:39.37009811;stroke-linecap:round;stroke-linejoin:round;stroke-opacity:1"
     id="g22"
     transform="translate(0,34250.025)" />
  <g
     style="fill:#000000;fill-opacity:0;stroke:#000000;stroke-width:39.37009811;stroke-linecap:round;stroke-linejoin:round;stroke-opacity:1"
     id="g28"
     transform="translate(0,34250.025)" />
  <g
     style="fill:#000000;fill-opacity:0;stroke:#000000;stroke-width:39.37009811;stroke-linecap:round;stroke-linejoin:round;stroke-opacity:1"
     id="g34"
     transform="translate(0,34250.025)" />
  <g
     style="fill:#000000;fill-opacity:0;stroke:#000000;stroke-width:39.37009811;stroke-linecap:round;stroke-linejoin:round;stroke-opacity:1"
     id="g40"
     transform="translate(0,34250.025)" />
  <g
     style="fill:#000000;fill-opacity:0;stroke:#000000;stroke-width:39.37009811;stroke-linecap:round;stroke-linejoin:round;stroke-opacity:1"
     id="g46"
     transform="translate(0,34250.025)" />
  <g
     style="fill:#000000;fill-opacity:0;stroke:#000000;stroke-width:39.37009811;stroke-linecap:round;stroke-linejoin:round;stroke-opacity:1"
     id="g52"
     transform="translate(0,34250.025)" />
  <g
     style="fill:#000000;fill-opacity:0;stroke:#000000;stroke-width:39.37009811;stroke-linecap:round;stroke-linejoin:round;stroke-opacity:1"
     id="g58"
     transform="translate(0,34250.025)" />
  <g
     style="fill:#000000;fill-opacity:0;stroke:#000000;stroke-width:39.37009811;stroke-linecap:round;stroke-linejoin:round;stroke-opacity:1"
     id="g68"
     transform="translate(0,34250.025)" />
  <g
     style="fill:#000000;fill-opacity:0;stroke:#000000;stroke-width:39.37009811;stroke-linecap:round;stroke-linejoin:round;stroke-opacity:1"
     id="g76"
     transform="translate(0,34250.025)" />
  <g
     style="fill:#000000;fill-opacity:0;stroke:#000000;stroke-width:39.37009811;stroke-linecap:round;stroke-linejoin:round;stroke-opacity:1"
     id="g84"
     transform="translate(0,34250.025)" />
  <g
     style="fill:#000000;fill-opacity:0;stroke:#000000;stroke-width:39.37009811;stroke-linecap:round;stroke-linejoin:round;stroke-opacity:1"
     id="g94"
     transform="translate(0,34250.025)" />
  <g
     style="fill:#000000;fill-opacity:0;stroke:#000000;stroke-width:39.37009811;stroke-linecap:round;stroke-linejoin:round;stroke-opacity:1"
     id="g102"
     transform="translate(0,34250.025)" />
  <g
     style="fill:#000000;fill-opacity:0;stroke:#000000;stroke-width:39.37009811;stroke-linecap:round;stroke-linejoin:round;stroke-opacity:1"
     id="g110"
     transform="translate(0,34250.025)" />
  <g
     style="fill:#000000;fill-opacity:0;stroke:#000000;stroke-width:39.37009811;stroke-linecap:round;stroke-linejoin:round;stroke-opacity:1"
     id="g116"
     transform="translate(0,34250.025)" />
  <g
     style="fill:#000000;fill-opacity:0;stroke:#000000;stroke-width:39.37009811;stroke-linecap:round;stroke-linejoin:round;stroke-opacity:1"
     id="g122"
     transform="translate(0,34250.025)" />
  <g
     style="fill:#000000;fill-opacity:0;stroke:#000000;stroke-width:39.37009811;stroke-linecap:round;stroke-linejoin:round;stroke-opacity:1"
     id="g128"
     transform="translate(0,34250.025)" />
  <g
     style="fill:#000000;fill-opacity:0;stroke:#000000;stroke-width:39.37009811;stroke-linecap:round;stroke-linejoin:round;stroke-opacity:1"
     id="g134"
     transform="translate(0,34250.025)" />
  <g
     style="fill:#000000;fill-opacity:0;stroke:#000000;stroke-width:39.37009811;stroke-linecap:round;stroke-linejoin:round;stroke-opacity:1"
     id="g140"
     transform="translate(0,34250.025)" />
  <g
     style="fill:#000000;fill-opacity:0;stroke:#000000;stroke-width:39.37009811;stroke-linecap:round;stroke-linejoin:round;stroke-opacity:1"
     id="g150"
     transform="translate(0,34250.025)" />
  <g
     style="fill:#000000;fill-opacity:0;stroke:#000000;stroke-width:39.37009811;stroke-linecap:round;stroke-linejoin:round;stroke-opacity:1"
     id="g158"
     transform="translate(0,34250.025)" />
  <g
     style="fill:#000000;fill-opacity:0;stroke:#000000;stroke-width:39.37009811;stroke-linecap:round;stroke-linejoin:round;stroke-opacity:1"
     id="g166"
     transform="translate(0,34250.025)" />
  <g
     style="fill:#000000;fill-opacity:0;stroke:#000000;stroke-width:39.37009811;stroke-linecap:round;stroke-linejoin:round;stroke-opacity:1"
     id="g176"
     transform="translate(0,34250.025)" />
  <g
     style="fill:#000000;fill-opacity:0;stroke:#000000;stroke-width:39.37009811;stroke-linecap:round;stroke-linejoin:round;stroke-opacity:1"
     id="g184"
     transform="translate(0,34250.025)" />
  <g
     style="fill:#000000;fill-opacity:0;stroke:#000000;stroke-width:39.37009811;stroke-linecap:round;stroke-linejoin:round;stroke-opacity:1"
     id="g192"
     transform="translate(0,34250.025)" />
  <g
     style="fill:#000000;fill-opacity:0;stroke:#000000;stroke-width:39.37009811;stroke-linecap:round;stroke-linejoin:round;stroke-opacity:1"
     id="g198"
     transform="translate(0,34250.025)" />
  <g
     style="fill:#000000;fill-opacity:0;stroke:#000000;stroke-width:39.37009811;stroke-linecap:round;stroke-linejoin:round;stroke-opacity:1"
     id="g204"
     transform="translate(0,34250.025)" />
  <g
     style="fill:#000000;fill-opacity:0;stroke:#000000;stroke-width:39.37009811;stroke-linecap:round;stroke-linejoin:round;stroke-opacity:1"
     id="g210"
     transform="translate(0,34250.025)" />
  <g
     style="fill:#000000;fill-opacity:0;stroke:#000000;stroke-width:39.37009811;stroke-linecap:round;stroke-linejoin:round;stroke-opacity:1"
     id="g220"
     transform="translate(0,34250.025)" />
  <g
     style="fill:#000000;fill-opacity:0;stroke:#000000;stroke-width:39.37009811;stroke-linecap:round;stroke-linejoin:round;stroke-opacity:1"
     id="g228"
     transform="translate(0,34250.025)" />
  <g
     style="fill:#000000;fill-opacity:0;stroke:#000000;stroke-width:39.37009811;stroke-linecap:round;stroke-linejoin:round;stroke-opacity:1"
     id="g236"
     transform="translate(0,34250.025)" />
  <g
     style="fill:#000000;fill-opacity:0;stroke:#000000;stroke-width:39.37009811;stroke-linecap:round;stroke-linejoin:round;stroke-opacity:1"
     id="g244"
     transform="translate(0,34250.025)" />
  <g
     style="fill:#000000;fill-opacity:0;stroke:#000000;stroke-width:39.37009811;stroke-linecap:round;stroke-linejoin:round;stroke-opacity:1"
     id="g250"
     transform="translate(0,34250.025)" />
  <g
     style="fill:#000000;fill-opacity:0;stroke:#000000;stroke-width:39.37009811;stroke-linecap:round;stroke-linejoin:round;stroke-opacity:1"
     id="g256"
     transform="translate(0,34250.025)" />
  <g
     style="fill:#000000;fill-opacity:0;stroke:#000000;stroke-width:39.37009811;stroke-linecap:round;stroke-linejoin:round;stroke-opacity:1"
     id="g262"
     transform="translate(0,34250.025)" />
  <g
     style="fill:#000000;fill-opacity:0;stroke:#000000;stroke-width:39.37009811;stroke-linecap:round;stroke-linejoin:round;stroke-opacity:1"
     id="g272"
     transform="translate(0,34250.025)" />
  <g
     style="fill:#000000;fill-opacity:0;stroke:#000000;stroke-width:39.37009811;stroke-linecap:round;stroke-linejoin:round;stroke-opacity:1"
     id="g280"
     transform="translate(0,34250.025)" />
  <g
     style="fill:#000000;fill-opacity:0;stroke:#000000;stroke-width:39.37009811;stroke-linecap:round;stroke-linejoin:round;stroke-opacity:1"
     id="g288"
     transform="translate(0,34250.025)" />
  <g
     style="fill:#000000;fill-opacity:0;stroke:#000000;stroke-width:39.37009811;stroke-linecap:round;stroke-linejoin:round;stroke-opacity:1"
     id="g296"
     transform="translate(0,34250.025)" />
  <g
     style="fill:#000000;fill-opacity:0;stroke:#000000;stroke-width:39.37009811;stroke-linecap:round;stroke-linejoin:round;stroke-opacity:1"
     id="g318"
     transform="translate(0,34250.025)" />
  <g
     style="fill:#000000;fill-opacity:0;stroke:#000000;stroke-width:39.37009811;stroke-linecap:round;stroke-linejoin:round;stroke-opacity:1"
     id="g324"
     transform="translate(0,34250.025)" />
  <g
     style="fill:#000000;fill-opacity:0;stroke:#000000;stroke-width:39.37009811;stroke-linecap:round;stroke-linejoin:round;stroke-opacity:1"
     id="g398"
     transform="translate(0,34250.025)" />
  <g
     style="fill:#000000;fill-opacity:0;stroke:#000000;stroke-width:39.37009811;stroke-linecap:round;stroke-linejoin:round;stroke-opacity:1"
     id="g404"
     transform="translate(0,34250.025)" />
  <g
     style="fill:#000000;fill-opacity:0;stroke:#000000;stroke-width:39.37009811;stroke-linecap:round;stroke-linejoin:round;stroke-opacity:1"
     id="g422"
     transform="translate(0,34250.025)" />
  <g
     style="fill:#000000;fill-opacity:0;stroke:#000000;stroke-width:39.37009811;stroke-linecap:round;stroke-linejoin:round;stroke-opacity:1"
     id="g450"
     transform="translate(0,34250.025)" />
  <g
     style="fill:#000000;fill-opacity:0;stroke:#000000;stroke-width:39.37009811;stroke-linecap:round;stroke-linejoin:round;stroke-opacity:1"
     id="g476"
     transform="translate(0,34250.025)" />
  <g
     style="fill:#000000;fill-opacity:0;stroke:#000000;stroke-width:39.37009811;stroke-linecap:round;stroke-linejoin:round;stroke-opacity:1"
     id="g482"
     transform="translate(0,34250.025)" />
  <g
     style="fill:#000000;fill-opacity:0;stroke:#000000;stroke-width:39.37009811;stroke-linecap:round;stroke-linejoin:round;stroke-opacity:1"
     id="g508"
     transform="translate(0,34250.025)" />
  <g
     style="fill:#000000;fill-opacity:0;stroke:#000000;stroke-width:39.37009811;stroke-linecap:round;stroke-linejoin:round;stroke-opacity:1"
     id="g590"
     transform="translate(0,34250.025)" />
  <g
     style="fill:#000000;fill-opacity:0;stroke:#000000;stroke-width:39.37009811;stroke-linecap:round;stroke-linejoin:round;stroke-opacity:1"
     id="g614"
     transform="translate(0,34250.025)" />
  <g
     style="fill:#000000;fill-opacity:0;stroke:#000000;stroke-width:39.37009811;stroke-linecap:round;stroke-linejoin:round;stroke-opacity:1"
     id="g620"
     transform="translate(0,34250.025)" />
  <g
     style="fill:#000000;fill-opacity:1;stroke:#000000;stroke-width:19.68499947;stroke-linecap:round;stroke-linejoin:round;stroke-opacity:1"
     id="g754"
     transform="translate(0,34250.025)" />
  <g
     inkscape:groupmode="layer"
     id="layer1"
     inkscape:label="Layer 1"
     transform="translate(0,34250.025)">
    <g
       id="g2412">
      <g
         id="g2581"
         transform="rotate(-90,20495.276,-15790.995)">
        <path
           id="path626"
           d="m 25961.214,-11659.649 68.1,28.2 v 0 l 61.4,41 52.1,52.1 v 0 l 41,61.4 28.2,68.1 14.4,72.3 v 73.8 l -14.4,72.3 -28.2,68.1 v 0 l -41,61.4 -52.1,52.1 -30.9,20.6 -30.5,20.4 -68.1,28.2 -72.3,14.4 h -73.8 l -72.3,-14.4 -68.1,-28.2 -30.5,-20.4 -30.9,-20.6 -52.1,-52.1 -41,-61.4 v 0 l -28.2,-68.1 -14.4,-72.3 v -73.8 l 14.4,-72.3 28.2,-68.1 41,-61.4 v 0 l 52.1,-52.1 61.4,-41 v 0 l 68.1,-28.2 72.3,-14.4 h 73.8 z"
           style="fill:#000000;fill-opacity:1;fill-rule:evenodd;stroke:#000000;stroke-width:0;stroke-linecap:round;stroke-linejoin:round;stroke-opacity:1"
           inkscape:connector-curvature="0" />
        <path
           id="path628"
           d="m 25961.214,-12659.649 68.1,28.2 v 0 l 61.4,41 52.1,52.1 v 0 l 41,61.4 28.2,68.1 14.4,72.3 v 73.8 l -14.4,72.3 -28.2,68.1 v 0 l -41,61.4 -52.1,52.1 -30.9,20.6 -30.5,20.4 -68.1,28.2 -72.3,14.4 h -73.8 l -72.3,-14.4 -68.1,-28.2 -30.5,-20.4 -30.9,-20.6 -52.1,-52.1 -41,-61.4 v 0 l -28.2,-68.1 -14.4,-72.3 v -73.8 l 14.4,-72.3 28.2,-68.1 41,-61.4 v 0 l 52.1,-52.1 61.4,-41 v 0 l 68.1,-28.2 72.3,-14.4 h 73.8 z"
           style="fill:#000000;fill-opacity:1;fill-rule:evenodd;stroke:#000000;stroke-width:0;stroke-linecap:round;stroke-linejoin:round;stroke-opacity:1"
           inkscape:connector-curvature="0" />
        <path
           id="path630"
           d="m 14375.514,-12800.749 30.4,9.3 28.1,15 24.6,20.2 20.2,24.6 15,28.1 9.3,30.4 3.3,34.1 v 418.8 l -3.3,34.1 -9.3,30.4 -15,28.1 -20.2,24.6 -24.6,20.2 -28.1,15 -30.4,9.3 -34.1,3.3 h -418.8 l -34.1,-3.3 -30.4,-9.3 -28.1,-15 -24.6,-20.2 -20.2,-24.6 -15,-28.1 -9.3,-30.4 -3.3,-34.1 v -418.8 l 3.3,-34.1 9.3,-30.4 15,-28.1 20.2,-24.6 24.6,-20.2 28.1,-15 30.4,-9.3 34.1,-3.3 h 418.8 z"
           style="fill:#000000;fill-opacity:1;fill-rule:evenodd;stroke:#000000;stroke-width:0;stroke-linecap:round;stroke-linejoin:round;stroke-opacity:1"
           inkscape:connector-curvature="0" />
        <path
           id="path632"
           d="m 16241.214,-12789.649 68.1,28.2 v 0 l 61.4,41 52.1,52.1 v 0 l 41,61.4 28.2,68.1 14.4,72.3 v 73.8 l -14.4,72.3 -28.2,68.1 v 0 l -41,61.4 -52.1,52.1 -0.6,0.4 -60.8,40.6 -68.1,28.2 -72.3,14.4 h -73.8 l -72.3,-14.4 -68.1,-28.2 -60.8,-40.6 -0.6,-0.4 -52.1,-52.1 -41,-61.4 v 0 l -28.2,-68.1 -14.4,-72.3 v -73.8 l 14.4,-72.3 28.2,-68.1 41,-61.4 v 0 l 52.1,-52.1 61.4,-41 v 0 l 68.1,-28.2 72.3,-14.4 h 73.8 z"
           style="fill:#000000;fill-opacity:1;fill-rule:evenodd;stroke:#000000;stroke-width:0;stroke-linecap:round;stroke-linejoin:round;stroke-opacity:1"
           inkscape:connector-curvature="0" />
        <path
           id="path634"
           d="m 15241.214,-12789.649 68.1,28.2 v 0 l 61.4,41 52.1,52.1 v 0 l 41,61.4 28.2,68.1 14.4,72.3 v 73.8 l -14.4,72.3 -28.2,68.1 v 0 l -41,61.4 -52.1,52.1 -0.6,0.4 -60.8,40.6 -68.1,28.2 -72.3,14.4 h -73.8 l -72.3,-14.4 -68.1,-28.2 -60.8,-40.6 -0.6,-0.4 -52.1,-52.1 -41,-61.4 v 0 l -28.2,-68.1 -14.4,-72.3 v -73.8 l 14.4,-72.3 28.2,-68.1 41,-61.4 v 0 l 52.1,-52.1 61.4,-41 v 0 l 68.1,-28.2 72.3,-14.4 h 73.8 z"
           style="fill:#000000;fill-opacity:1;fill-rule:evenodd;stroke:#000000;stroke-width:0;stroke-linecap:round;stroke-linejoin:round;stroke-opacity:1"
           inkscape:connector-curvature="0" />
        <path
           id="path636"
           d="m 12055.314,-13388.749 68.2,28.2 v 0 l 61.3,41 52.1,52.1 5.8,8.6 35.2,52.8 28.2,68.1 14.4,72.3 v 73.8 l -14.4,72.3 -28.2,68.2 v 0 l -41,61.3 -52.1,52.1 -9.4,6.3 -51.9,34.7 -68.2,28.2 -72.3,14.4 h -73.8 l -72.3,-14.4 -68.1,-28.2 -52,-34.7 -9.4,-6.3 -52.1,-52.1 -41,-61.3 v 0 l -28.2,-68.2 -14.4,-72.3 v -73.8 l 14.4,-72.3 28.2,-68.1 35.2,-52.8 5.8,-8.6 52.1,-52.1 61.4,-41 v 0 l 68.1,-28.2 72.3,-14.4 h 73.8 z"
           style="fill:#000000;fill-opacity:1;fill-rule:evenodd;stroke:#000000;stroke-width:0;stroke-linecap:round;stroke-linejoin:round;stroke-opacity:1"
           inkscape:connector-curvature="0" />
        <path
           id="path638"
           d="m 11071.114,-13388.749 68.1,28.2 v 0 l 61.3,41 52.2,52.1 5.7,8.6 35.2,52.8 28.3,68.1 14.4,72.3 v 73.8 l -14.4,72.3 -28.3,68.2 v 0 l -40.9,61.3 -52.2,52.1 -9.3,6.3 -52,34.7 -68.1,28.2 -72.4,14.4 h -73.7 l -72.4,-14.4 -68.1,-28.2 -52,-34.7 -9.3,-6.3 -52.2,-52.1 -40.9,-61.3 v 0 l -28.3,-68.2 -14.4,-72.3 v -73.8 l 14.4,-72.3 28.3,-68.1 35.2,-52.8 5.7,-8.6 52.2,-52.1 61.3,-41 v 0 l 68.1,-28.2 72.4,-14.4 h 73.7 z"
           style="fill:#000000;fill-opacity:1;fill-rule:evenodd;stroke:#000000;stroke-width:0;stroke-linecap:round;stroke-linejoin:round;stroke-opacity:1"
           inkscape:connector-curvature="0" />
        <path
           id="path640"
           d="m 24711.214,-13659.649 68.1,28.2 30.5,20.4 30.9,20.6 52.1,52.1 v 0 l 41,61.4 28.2,68.1 14.4,72.3 v 73.8 l -14.4,72.3 -28.2,68.1 v 0 l -41,61.4 -52.1,52.1 -25.4,17 -36,24 -68.1,28.2 -72.3,14.4 h -73.8 l -72.3,-14.4 -68.1,-28.2 -36,-24 -25.4,-17 -52.1,-52.1 -41,-61.4 v 0 l -28.2,-68.1 -14.4,-72.3 v -73.8 l 14.4,-72.3 28.2,-68.1 41,-61.4 v 0 l 52.1,-52.1 30.9,-20.6 30.5,-20.4 68.1,-28.2 72.3,-14.4 h 73.8 z"
           style="fill:#000000;fill-opacity:1;fill-rule:evenodd;stroke:#000000;stroke-width:0;stroke-linecap:round;stroke-linejoin:round;stroke-opacity:1"
           inkscape:connector-curvature="0" />
        <path
           id="path642"
           d="m 23711.214,-13659.649 68.1,28.2 30.5,20.4 30.9,20.6 52.1,52.1 v 0 l 41,61.4 28.2,68.1 14.4,72.3 v 73.8 l -14.4,72.3 -28.2,68.1 v 0 l -41,61.4 -52.1,52.1 -25.4,17 -36,24 -68.1,28.2 -72.3,14.4 h -73.8 l -72.3,-14.4 -68.1,-28.2 -36,-24 -25.4,-17 -52.1,-52.1 -41,-61.4 v 0 l -28.2,-68.1 -14.4,-72.3 v -73.8 l 14.4,-72.3 28.2,-68.1 41,-61.4 v 0 l 52.1,-52.1 30.9,-20.6 30.5,-20.4 68.1,-28.2 72.3,-14.4 h 73.8 z"
           style="fill:#000000;fill-opacity:1;fill-rule:evenodd;stroke:#000000;stroke-width:0;stroke-linecap:round;stroke-linejoin:round;stroke-opacity:1"
           inkscape:connector-curvature="0" />
        <path
           id="path644"
           d="m 25961.214,-13909.649 68.1,28.2 v 0 l 61.4,41 52.1,52.1 v 0 l 41,61.4 28.2,68.1 14.4,72.3 v 73.8 l -14.4,72.3 -28.2,68.1 v 0 l -41,61.4 -52.1,52.1 -30.9,20.6 -30.5,20.4 -68.1,28.2 -72.3,14.4 h -73.8 l -72.3,-14.4 -68.1,-28.2 -30.5,-20.4 -30.9,-20.6 -52.1,-52.1 -41,-61.4 v 0 l -28.2,-68.1 -14.4,-72.3 v -73.8 l 14.4,-72.3 28.2,-68.1 41,-61.4 v 0 l 52.1,-52.1 61.4,-41 v 0 l 68.1,-28.2 72.3,-14.4 h 73.8 z"
           style="fill:#000000;fill-opacity:1;fill-rule:evenodd;stroke:#000000;stroke-width:0;stroke-linecap:round;stroke-linejoin:round;stroke-opacity:1"
           inkscape:connector-curvature="0" />
        <path
           id="path646"
           d="m 27461.214,-13909.649 68.1,28.2 v 0 l 61.4,41 52.1,52.1 v 0 l 41,61.4 28.2,68.1 14.4,72.3 v 73.8 l -14.4,72.3 -28.2,68.1 v 0 l -41,61.4 -52.1,52.1 -30.9,20.6 -30.5,20.4 -68.1,28.2 -72.3,14.4 h -73.8 l -72.3,-14.4 -68.1,-28.2 -30.5,-20.4 -30.9,-20.6 -52.1,-52.1 -41,-61.4 v 0 l -28.2,-68.1 -14.4,-72.3 v -73.8 l 14.4,-72.3 28.2,-68.1 41,-61.4 v 0 l 52.1,-52.1 61.4,-41 v 0 l 68.1,-28.2 72.3,-14.4 h 73.8 z"
           style="fill:#000000;fill-opacity:1;fill-rule:evenodd;stroke:#000000;stroke-width:0;stroke-linecap:round;stroke-linejoin:round;stroke-opacity:1"
           inkscape:connector-curvature="0" />
        <path
           id="path648"
           d="m 20211.214,-14159.649 68.1,28.2 v 0 l 61.4,41 52.1,52.1 v 0 l 41,61.4 28.2,68.1 14.4,72.3 v 73.8 l -14.4,72.3 -28.2,68.1 v 0 l -41,61.4 -52.1,52.1 -30.9,20.6 -30.5,20.4 -68.1,28.2 -72.3,14.4 h -73.8 l -72.3,-14.4 -68.1,-28.2 -30.5,-20.4 -30.9,-20.6 -52.1,-52.1 -41,-61.4 v 0 l -28.2,-68.1 -14.4,-72.3 v -73.8 l 14.4,-72.3 28.2,-68.1 41,-61.4 v 0 l 52.1,-52.1 61.4,-41 v 0 l 68.1,-28.2 72.3,-14.4 h 73.8 z"
           style="fill:#000000;fill-opacity:1;fill-rule:evenodd;stroke:#000000;stroke-width:0;stroke-linecap:round;stroke-linejoin:round;stroke-opacity:1"
           inkscape:connector-curvature="0" />
        <path
           id="path650"
           d="m 21211.214,-14159.649 68.1,28.2 v 0 l 61.4,41 52.1,52.1 v 0 l 41,61.4 28.2,68.1 14.4,72.3 v 73.8 l -14.4,72.3 -28.2,68.1 v 0 l -41,61.4 -52.1,52.1 -30.9,20.6 -30.5,20.4 -68.1,28.2 -72.3,14.4 h -73.8 l -72.3,-14.4 -68.1,-28.2 -30.5,-20.4 -30.9,-20.6 -52.1,-52.1 -41,-61.4 v 0 l -28.2,-68.1 -14.4,-72.3 v -73.8 l 14.4,-72.3 28.2,-68.1 41,-61.4 v 0 l 52.1,-52.1 61.4,-41 v 0 l 68.1,-28.2 72.3,-14.4 h 73.8 z"
           style="fill:#000000;fill-opacity:1;fill-rule:evenodd;stroke:#000000;stroke-width:0;stroke-linecap:round;stroke-linejoin:round;stroke-opacity:1"
           inkscape:connector-curvature="0" />
        <path
           id="path652"
           d="m 22211.214,-14159.649 68.1,28.2 v 0 l 61.4,41 52.1,52.1 v 0 l 41,61.4 28.2,68.1 14.4,72.3 v 73.8 l -14.4,72.3 -28.2,68.1 v 0 l -41,61.4 -52.1,52.1 -30.9,20.6 -30.5,20.4 -68.1,28.2 -72.3,14.4 h -73.8 l -72.3,-14.4 -68.1,-28.2 -30.5,-20.4 -30.9,-20.6 -52.1,-52.1 -41,-61.4 v 0 l -28.2,-68.1 -14.4,-72.3 v -73.8 l 14.4,-72.3 28.2,-68.1 41,-61.4 v 0 l 52.1,-52.1 61.4,-41 v 0 l 68.1,-28.2 72.3,-14.4 h 73.8 z"
           style="fill:#000000;fill-opacity:1;fill-rule:evenodd;stroke:#000000;stroke-width:0;stroke-linecap:round;stroke-linejoin:round;stroke-opacity:1"
           inkscape:connector-curvature="0" />
        <path
           id="path654"
           d="m 23711.214,-14909.649 68.1,28.2 v 0 l 61.4,41 52.1,52.1 v 0 l 41,61.4 28.2,68.1 14.4,72.3 v 73.8 l -14.4,72.3 -28.2,68.1 v 0 l -41,61.4 -52.1,52.1 -30.9,20.6 -30.5,20.4 -68.1,28.2 -72.3,14.4 h -73.8 l -72.3,-14.4 -68.1,-28.2 -30.5,-20.4 -30.9,-20.6 -52.1,-52.1 -41,-61.4 v 0 l -28.2,-68.1 -14.4,-72.3 v -73.8 l 14.4,-72.3 28.2,-68.1 41,-61.4 v 0 l 52.1,-52.1 61.4,-41 v 0 l 68.1,-28.2 72.3,-14.4 h 73.8 z"
           style="fill:#000000;fill-opacity:1;fill-rule:evenodd;stroke:#000000;stroke-width:0;stroke-linecap:round;stroke-linejoin:round;stroke-opacity:1"
           inkscape:connector-curvature="0" />
        <path
           id="path656"
           d="m 24711.214,-14909.649 68.1,28.2 v 0 l 61.4,41 52.1,52.1 v 0 l 41,61.4 28.2,68.1 14.4,72.3 v 73.8 l -14.4,72.3 -28.2,68.1 v 0 l -41,61.4 -52.1,52.1 -30.9,20.6 -30.5,20.4 -68.1,28.2 -72.3,14.4 h -73.8 l -72.3,-14.4 -68.1,-28.2 -30.5,-20.4 -30.9,-20.6 -52.1,-52.1 -41,-61.4 v 0 l -28.2,-68.1 -14.4,-72.3 v -73.8 l 14.4,-72.3 28.2,-68.1 41,-61.4 v 0 l 52.1,-52.1 61.4,-41 v 0 l 68.1,-28.2 72.3,-14.4 h 73.8 z"
           style="fill:#000000;fill-opacity:1;fill-rule:evenodd;stroke:#000000;stroke-width:0;stroke-linecap:round;stroke-linejoin:round;stroke-opacity:1"
           inkscape:connector-curvature="0" />
        <path
           id="path658"
           d="m 27461.214,-14909.649 68.1,28.2 v 0 l 61.4,41 52.1,52.1 v 0 l 41,61.4 28.2,68.1 14.4,72.3 v 73.8 l -14.4,72.3 -28.2,68.1 v 0 l -41,61.4 -52.1,52.1 -30.9,20.6 -30.5,20.4 -68.1,28.2 -72.3,14.4 h -73.8 l -72.3,-14.4 -68.1,-28.2 -30.5,-20.4 -30.9,-20.6 -52.1,-52.1 -41,-61.4 v 0 l -28.2,-68.1 -14.4,-72.3 v -73.8 l 14.4,-72.3 28.2,-68.1 41,-61.4 v 0 l 52.1,-52.1 61.4,-41 v 0 l 68.1,-28.2 72.3,-14.4 h 73.8 z"
           style="fill:#000000;fill-opacity:1;fill-rule:evenodd;stroke:#000000;stroke-width:0;stroke-linecap:round;stroke-linejoin:round;stroke-opacity:1"
           inkscape:connector-curvature="0" />
        <path
           id="path660"
           d="m 25961.214,-14909.649 68.1,28.2 v 0 l 61.4,41 52.1,52.1 v 0 l 41,61.4 28.2,68.1 14.4,72.3 v 73.8 l -14.4,72.3 -28.2,68.1 v 0 l -41,61.4 -52.1,52.1 -30.9,20.6 -30.5,20.4 -68.1,28.2 -72.3,14.4 h -73.8 l -72.3,-14.4 -68.1,-28.2 -30.5,-20.4 -30.9,-20.6 -52.1,-52.1 -41,-61.4 v 0 l -28.2,-68.1 -14.4,-72.3 v -73.8 l 14.4,-72.3 28.2,-68.1 41,-61.4 v 0 l 52.1,-52.1 61.4,-41 v 0 l 68.1,-28.2 72.3,-14.4 h 73.8 z"
           style="fill:#000000;fill-opacity:1;fill-rule:evenodd;stroke:#000000;stroke-width:0;stroke-linecap:round;stroke-linejoin:round;stroke-opacity:1"
           inkscape:connector-curvature="0" />
        <path
           id="path662"
           d="m 15285.314,-15008.749 68.2,28.2 v 0 l 61.3,41 52.1,52.1 v 0 l 41,61.4 28.2,68.1 14.4,72.3 v 73.8 l -14.4,72.3 -28.2,68.2 v 0 l -41,61.3 -52.1,52.1 -30.9,20.7 -30.4,20.3 -68.2,28.2 -72.3,14.4 h -73.8 l -72.3,-14.4 -68.1,-28.2 -30.5,-20.3 -30.9,-20.7 -52.1,-52.1 -41,-61.3 v 0 l -28.2,-68.2 -14.4,-72.3 v -73.8 l 14.4,-72.3 28.2,-68.1 41,-61.4 v 0 l 52.1,-52.1 61.4,-41 v 0 l 68.1,-28.2 72.3,-14.4 h 73.8 z"
           style="fill:#000000;fill-opacity:1;fill-rule:evenodd;stroke:#000000;stroke-width:0;stroke-linecap:round;stroke-linejoin:round;stroke-opacity:1"
           inkscape:connector-curvature="0" />
        <path
           id="path664"
           d="m 13434.014,-15933.449 86.1,35.7 v 0 l 77.4,51.7 65.9,65.9 51.7,77.4 v 0 l 35.7,86.1 18.1,91.3 v 93.2 l -18.1,91.3 -21.6,52.1 -14.1,34 -51.7,77.4 -65.9,65.9 -77.4,51.7 v 0 0 l -86.1,35.7 -91.3,18.1 h -93.2 l -91.3,-18.1 -86.1,-35.7 v 0 0 l -77.4,-51.7 -65.9,-65.9 -51.7,-77.4 -14.1,-34 -21.6,-52.1 -18.1,-91.3 v -93.2 l 18.1,-91.3 35.7,-86.1 v 0 l 51.7,-77.4 65.9,-65.9 77.4,-51.7 v 0 l 86.1,-35.7 91.3,-18.1 h 93.2 z"
           style="fill:#000000;fill-opacity:1;fill-rule:evenodd;stroke:#000000;stroke-width:0;stroke-linecap:round;stroke-linejoin:round;stroke-opacity:1"
           inkscape:connector-curvature="0" />
        <path
           id="path666"
           d="m 11084.214,-15854.749 30.4,9.2 28.1,15 24.6,20.2 20.2,24.6 15,28.1 9.3,30.4 3.3,34.1 v 418.8 l -3.3,34.1 -9.3,30.4 -15,28.1 -20.2,24.6 -24.6,20.2 -28.1,15 -30.4,9.3 -34.1,3.3 h -418.8 l -34.1,-3.3 -30.4,-9.3 -28.1,-15 -24.6,-20.2 -20.2,-24.6 -15,-28.1 -9.3,-30.4 -3.3,-34.1 v -418.8 l 3.3,-34.1 9.3,-30.4 15,-28.1 20.2,-24.6 24.6,-20.2 28.1,-15 30.4,-9.2 34.1,-3.4 h 418.8 z"
           style="fill:#000000;fill-opacity:1;fill-rule:evenodd;stroke:#000000;stroke-width:0;stroke-linecap:round;stroke-linejoin:round;stroke-opacity:1"
           inkscape:connector-curvature="0" />
        <path
           id="path668"
           d="m 27461.214,-15909.649 68.1,28.2 v 0 l 61.4,41 52.1,52.1 20.3,30.4 20.7,31 28.2,68.1 14.4,72.3 v 73.8 l -14.4,72.3 -28.2,68.1 v 0 l -41,61.4 -52.1,52.1 -6.1,4.1 -55.3,36.9 -68.1,28.2 -72.3,14.4 h -73.8 l -72.3,-14.4 -68.1,-28.2 -55.3,-36.9 -6.1,-4.1 -52.1,-52.1 -41,-61.4 v 0 l -28.2,-68.1 -14.4,-72.3 v -73.8 l 14.4,-72.3 28.2,-68.1 20.7,-31 20.3,-30.4 52.1,-52.1 61.4,-41 v 0 l 68.1,-28.2 72.3,-14.4 h 73.8 z"
           style="fill:#000000;fill-opacity:1;fill-rule:evenodd;stroke:#000000;stroke-width:0;stroke-linecap:round;stroke-linejoin:round;stroke-opacity:1"
           inkscape:connector-curvature="0" />
        <path
           id="path670"
           d="m 15285.314,-16008.749 68.2,28.2 v 0 l 61.3,41 52.1,52.1 v 0 l 41,61.4 28.2,68.1 14.4,72.3 v 73.8 l -14.4,72.3 -28.2,68.2 v 0 l -41,61.3 -52.1,52.1 -25.6,17.1 -35.7,23.9 -68.2,28.2 -72.3,14.4 h -73.8 l -72.3,-14.4 -68.1,-28.2 -35.8,-23.9 -25.6,-17.1 -52.1,-52.1 -41,-61.3 v 0 l -28.2,-68.2 -14.4,-72.3 v -73.8 l 14.4,-72.3 28.2,-68.1 41,-61.4 v 0 l 52.1,-52.1 61.4,-41 v 0 l 68.1,-28.2 72.3,-14.4 h 73.8 z"
           style="fill:#000000;fill-opacity:1;fill-rule:evenodd;stroke:#000000;stroke-width:0;stroke-linecap:round;stroke-linejoin:round;stroke-opacity:1"
           inkscape:connector-curvature="0" />
        <path
           id="path672"
           d="m 20609.014,-15390.449 h -2441.8 v -670.1 h 2441.8 z"
           style="fill:#000000;fill-opacity:1;fill-rule:evenodd;stroke:#000000;stroke-width:0;stroke-linecap:round;stroke-linejoin:round;stroke-opacity:1"
           inkscape:connector-curvature="0" />
        <path
           id="path674"
           d="m 27595.514,-16920.749 30.4,9.3 28.1,15 24.6,20.2 20.2,24.6 15,28.1 9.3,30.4 3.3,34.1 v 418.8 l -3.3,34.1 -9.3,30.4 -15,28.1 -20.2,24.6 -24.6,20.2 -28.1,15 -30.4,9.3 -34.1,3.3 h -418.8 l -34.1,-3.3 -30.4,-9.3 -28.1,-15 -24.6,-20.2 -20.2,-24.6 -15,-28.1 -9.3,-30.4 -3.3,-34.1 v -418.8 l 3.3,-34.1 9.3,-30.4 15,-28.1 20.2,-24.6 24.6,-20.2 28.1,-15 30.4,-9.3 34.1,-3.3 h 418.8 z"
           style="fill:#000000;fill-opacity:1;fill-rule:evenodd;stroke:#000000;stroke-width:0;stroke-linecap:round;stroke-linejoin:round;stroke-opacity:1"
           inkscape:connector-curvature="0" />
        <path
           id="path676"
           d="m 21396.414,-16177.849 h -670.1 v -2441.8 h 670.1 z"
           style="fill:#000000;fill-opacity:1;fill-rule:evenodd;stroke:#000000;stroke-width:0;stroke-linecap:round;stroke-linejoin:round;stroke-opacity:1"
           inkscape:connector-curvature="0" />
        <path
           id="path678"
           d="m 18049.914,-16177.849 h -670.1 v -2441.8 h 670.1 z"
           style="fill:#000000;fill-opacity:1;fill-rule:evenodd;stroke:#000000;stroke-width:0;stroke-linecap:round;stroke-linejoin:round;stroke-opacity:1"
           inkscape:connector-curvature="0" />
        <path
           id="path680"
           d="m 25121.514,-17045.749 30.4,9.3 28.1,15 24.6,20.2 20.2,24.6 15,28.1 9.3,30.4 3.3,34.1 v 418.8 l -3.3,34.1 -9.3,30.4 -15,28.1 -20.2,24.6 -24.6,20.2 -28.1,15 -30.4,9.3 -34.1,3.3 h -418.8 l -34.1,-3.3 -30.4,-9.3 -28.1,-15 -24.6,-20.2 -20.2,-24.6 -15,-28.1 -9.3,-30.4 -3.3,-34.1 v -418.8 l 3.3,-34.1 9.3,-30.4 15,-28.1 20.2,-24.6 24.6,-20.2 28.1,-15 30.4,-9.3 34.1,-3.3 h 418.8 z"
           style="fill:#000000;fill-opacity:1;fill-rule:evenodd;stroke:#000000;stroke-width:0;stroke-linecap:round;stroke-linejoin:round;stroke-opacity:1"
           inkscape:connector-curvature="0" />
        <path
           id="path682"
           d="m 23987.214,-17034.649 68.1,28.2 v 0 l 61.4,41 52.1,52.1 10,15 31,46.4 28.2,68.1 14.4,72.3 v 73.8 l -14.4,72.3 -28.2,68.1 v 0 l -41,61.4 -52.1,52.1 -0.6,0.4 -60.8,40.6 -68.1,28.2 -72.3,14.4 h -73.8 l -72.3,-14.4 -68.1,-28.2 -60.8,-40.6 -0.6,-0.4 -52.1,-52.1 -41,-61.4 v 0 l -28.2,-68.1 -14.4,-72.3 v -73.8 l 14.4,-72.3 28.2,-68.1 31,-46.4 10,-15 52.1,-52.1 61.4,-41 v 0 l 68.1,-28.2 72.3,-14.4 h 73.8 z"
           style="fill:#000000;fill-opacity:1;fill-rule:evenodd;stroke:#000000;stroke-width:0;stroke-linecap:round;stroke-linejoin:round;stroke-opacity:1"
           inkscape:connector-curvature="0" />
        <path
           id="path684"
           d="m 15285.314,-17593.749 68.2,28.2 v 0 l 61.3,41 52.1,52.1 12,18 29,43.4 28.2,68.1 14.4,72.3 v 73.8 l -14.4,72.3 -28.2,68.2 -7.1,10.6 -33.9,50.7 -52.1,52.1 -14.1,9.5 -47.2,31.5 -68.2,28.2 -72.3,14.4 h -73.8 l -72.3,-14.4 -68.1,-28.2 -47.3,-31.5 -14.1,-9.5 -52.1,-52.1 -33.9,-50.7 -7.1,-10.6 -28.2,-68.2 -14.4,-72.3 v -73.8 l 14.4,-72.3 28.2,-68.1 29,-43.4 12,-18 52.1,-52.1 61.4,-41 v 0 l 68.1,-28.2 72.3,-14.4 h 73.8 z"
           style="fill:#000000;fill-opacity:1;fill-rule:evenodd;stroke:#000000;stroke-width:0;stroke-linecap:round;stroke-linejoin:round;stroke-opacity:1"
           inkscape:connector-curvature="0" />
        <path
           id="path686"
           d="m 13434.014,-17862.549 86.1,35.7 v 0 l 77.4,51.7 65.9,65.9 51.7,77.4 v 0 l 35.7,86.1 18.1,91.3 v 93.1 l -18.1,91.4 -30.3,73.1 -5.4,12.9 -51.7,77.5 -65.9,65.8 -77.4,51.8 v 0 0 l -86.1,35.6 -91.3,18.2 h -93.2 l -91.3,-18.2 -86.1,-35.6 v 0 0 l -77.4,-51.8 -65.9,-65.8 -51.7,-77.5 -5.4,-12.9 -30.3,-73.1 -18.1,-91.4 v -93.1 l 18.1,-91.3 35.7,-86.1 v 0 l 51.7,-77.4 65.9,-65.9 77.4,-51.7 v 0 l 86.1,-35.7 91.3,-18.2 h 93.2 z"
           style="fill:#000000;fill-opacity:1;fill-rule:evenodd;stroke:#000000;stroke-width:0;stroke-linecap:round;stroke-linejoin:round;stroke-opacity:1"
           inkscape:connector-curvature="0" />
        <path
           id="path688"
           d="m 11084.214,-17779.749 30.4,9.2 28.1,15 24.6,20.2 20.2,24.6 15,28.1 9.3,30.4 3.3,34.1 v 418.8 l -3.3,34.1 -9.3,30.4 -15,28.1 -20.2,24.6 -24.6,20.2 -28.1,15 -30.4,9.3 -34.1,3.3 h -418.8 l -34.1,-3.3 -30.4,-9.3 -28.1,-15 -24.6,-20.2 -20.2,-24.6 -15,-28.1 -9.3,-30.4 -3.3,-34.1 v -418.8 l 3.3,-34.1 9.3,-30.4 15,-28.1 20.2,-24.6 24.6,-20.2 28.1,-15 30.4,-9.2 34.1,-3.4 h 418.8 z"
           style="fill:#000000;fill-opacity:1;fill-rule:evenodd;stroke:#000000;stroke-width:0;stroke-linecap:round;stroke-linejoin:round;stroke-opacity:1"
           inkscape:connector-curvature="0" />
        <path
           id="path690"
           d="m 15285.314,-18593.749 68.2,28.2 v 0 l 61.3,41 52.1,52.1 v 0 l 41,61.4 28.2,68.1 14.4,72.3 v 73.8 l -14.4,72.3 -28.2,68.2 v 0 l -41,61.3 -52.1,52.1 -30.9,20.7 -30.4,20.3 -68.2,28.2 -72.3,14.4 h -73.8 l -72.3,-14.4 -68.1,-28.2 -30.5,-20.3 -30.9,-20.7 -52.1,-52.1 -41,-61.3 v 0 l -28.2,-68.2 -14.4,-72.3 v -73.8 l 14.4,-72.3 28.2,-68.1 41,-61.4 v 0 l 52.1,-52.1 61.4,-41 v 0 l 68.1,-28.2 72.3,-14.4 h 73.8 z"
           style="fill:#000000;fill-opacity:1;fill-rule:evenodd;stroke:#000000;stroke-width:0;stroke-linecap:round;stroke-linejoin:round;stroke-opacity:1"
           inkscape:connector-curvature="0" />
        <path
           id="path692"
           d="m 25347.514,-18715.749 30.4,9.3 28.1,15 24.6,20.2 20.2,24.6 15,28.1 9.3,30.4 3.3,34.1 v 418.8 l -3.3,34.1 -9.3,30.4 -15,28.1 -20.2,24.6 -24.6,20.2 -28.1,15 -30.4,9.3 -34.1,3.3 h -418.8 l -34.1,-3.3 -30.4,-9.3 -28.1,-15 -24.6,-20.2 -20.2,-24.6 -15,-28.1 -9.3,-30.4 -3.3,-34.1 v -418.8 l 3.3,-34.1 9.3,-30.4 15,-28.1 20.2,-24.6 24.6,-20.2 28.1,-15 30.4,-9.3 34.1,-3.3 h 418.8 z"
           style="fill:#000000;fill-opacity:1;fill-rule:evenodd;stroke:#000000;stroke-width:0;stroke-linecap:round;stroke-linejoin:round;stroke-opacity:1"
           inkscape:connector-curvature="0" />
        <path
           id="path694"
           d="m 20609.014,-18736.949 h -2441.8 v -670.1 h 2441.8 z"
           style="fill:#000000;fill-opacity:1;fill-rule:evenodd;stroke:#000000;stroke-width:0;stroke-linecap:round;stroke-linejoin:round;stroke-opacity:1"
           inkscape:connector-curvature="0" />
        <path
           id="path696"
           d="m 25213.214,-19704.649 68.1,28.2 30.5,20.4 30.9,20.6 52.1,52.1 v 0 l 41,61.4 28.2,68.1 14.4,72.3 v 73.8 l -14.4,72.3 -28.2,68.1 v 0 l -41,61.4 -52.1,52.1 -30.9,20.6 -30.5,20.4 -68.1,28.2 -72.3,14.4 h -73.8 l -72.3,-14.4 -68.1,-28.2 -30.5,-20.4 -30.9,-20.6 -52.1,-52.1 -41,-61.4 v 0 l -28.2,-68.1 -14.4,-72.3 v -73.8 l 14.4,-72.3 28.2,-68.1 41,-61.4 v 0 l 52.1,-52.1 30.9,-20.6 30.5,-20.4 68.1,-28.2 72.3,-14.4 h 73.8 z"
           style="fill:#000000;fill-opacity:1;fill-rule:evenodd;stroke:#000000;stroke-width:0;stroke-linecap:round;stroke-linejoin:round;stroke-opacity:1"
           inkscape:connector-curvature="0" />
        <path
           id="path698"
           d="m 14293.214,-20015.649 68.1,28.2 26.1,17.4 35.3,23.6 52.1,52.1 v 0 l 41,61.4 28.2,68.1 14.4,72.3 v 73.8 l -14.4,72.3 -28.2,68.1 -12.7,19 -28.3,42.4 -52.1,52.1 -30.9,20.6 -30.5,20.4 -68.1,28.2 -72.3,14.4 h -73.8 l -72.3,-14.4 -68.1,-28.2 -30.5,-20.4 -30.9,-20.6 -52.1,-52.1 -28.3,-42.4 -12.7,-19 -28.2,-68.1 -14.4,-72.3 v -73.8 l 14.4,-72.3 28.2,-68.1 41,-61.4 v 0 l 52.1,-52.1 35.3,-23.6 26.1,-17.4 68.1,-28.2 72.3,-14.4 h 73.8 z"
           style="fill:#000000;fill-opacity:1;fill-rule:evenodd;stroke:#000000;stroke-width:0;stroke-linecap:round;stroke-linejoin:round;stroke-opacity:1"
           inkscape:connector-curvature="0" />
        <path
           id="path700"
           d="m 13309.014,-20015.649 68.1,28.2 26,17.4 35.3,23.6 52.2,52.1 v 0 l 40.9,61.4 28.3,68.1 14.4,72.3 v 73.8 l -14.4,72.3 -28.3,68.1 -12.6,19 -28.3,42.4 -52.2,52.1 -30.8,20.6 -30.5,20.4 -68.1,28.2 -72.4,14.4 h -73.7 l -72.4,-14.4 -68.1,-28.2 -30.5,-20.4 -30.8,-20.6 -52.2,-52.1 -28.3,-42.4 -12.6,-19 -28.3,-68.1 -14.4,-72.3 v -73.8 l 14.4,-72.3 28.3,-68.1 40.9,-61.4 v 0 l 52.2,-52.1 35.3,-23.6 26,-17.4 68.1,-28.2 72.4,-14.4 h 73.7 z"
           style="fill:#000000;fill-opacity:1;fill-rule:evenodd;stroke:#000000;stroke-width:0;stroke-linecap:round;stroke-linejoin:round;stroke-opacity:1"
           inkscape:connector-curvature="0" />
        <path
           id="path702"
           d="m 27511.214,-20159.649 68.1,28.2 26.2,17.5 35.2,23.5 52.1,52.1 v 0 l 41,61.4 28.2,68.1 14.4,72.3 v 73.8 l -14.4,72.3 -28.2,68.1 -2.4,3.6 -38.6,57.8 -52.1,52.1 -10.3,6.9 -51.1,34.1 -68.1,28.2 -72.3,14.4 h -73.8 l -72.3,-14.4 -68.1,-28.2 -51.1,-34.1 -10.3,-6.9 -52.1,-52.1 -38.6,-57.8 -2.4,-3.6 -28.2,-68.1 -14.4,-72.3 v -73.8 l 14.4,-72.3 28.2,-68.1 41,-61.4 v 0 l 52.1,-52.1 35.2,-23.5 26.2,-17.5 68.1,-28.2 72.3,-14.4 h 73.8 z"
           style="fill:#000000;fill-opacity:1;fill-rule:evenodd;stroke:#000000;stroke-width:0;stroke-linecap:round;stroke-linejoin:round;stroke-opacity:1"
           inkscape:connector-curvature="0" />
        <path
           id="path704"
           d="m 11076.114,-20193.749 68.1,28.2 30.5,20.4 30.8,20.6 52.2,52.1 7.3,11 33.6,50.4 28.3,68.1 14.4,72.3 v 73.8 l -14.4,72.3 -28.3,68.2 v 0 l -40.9,61.3 -52.2,52.1 -30.8,20.7 -30.5,20.3 -68.1,28.2 -72.4,14.4 h -73.7 l -72.4,-14.4 -68.1,-28.2 -30.5,-20.3 -30.8,-20.7 -52.2,-52.1 -40.9,-61.3 v 0 l -28.3,-68.2 -14.4,-72.3 v -73.8 l 14.4,-72.3 28.3,-68.1 33.6,-50.4 7.3,-11 52.2,-52.1 30.8,-20.6 30.5,-20.4 68.1,-28.2 72.4,-14.4 h 73.7 z"
           style="fill:#000000;fill-opacity:1;fill-rule:evenodd;stroke:#000000;stroke-width:0;stroke-linecap:round;stroke-linejoin:round;stroke-opacity:1"
           inkscape:connector-curvature="0" />
        <path
           id="path706"
           d="m 12060.314,-20193.749 68.2,28.2 30.4,20.4 30.9,20.6 52.1,52.1 7.4,11 33.6,50.4 28.2,68.1 14.4,72.3 v 73.8 l -14.4,72.3 -28.2,68.2 v 0 l -41,61.3 -52.1,52.1 -30.9,20.7 -30.4,20.3 -68.2,28.2 -72.3,14.4 h -73.8 l -72.3,-14.4 -68.1,-28.2 -30.5,-20.3 -30.9,-20.7 -52.1,-52.1 -41,-61.3 v 0 l -28.2,-68.2 -14.4,-72.3 v -73.8 l 14.4,-72.3 28.2,-68.1 33.6,-50.4 7.4,-11 52.1,-52.1 30.9,-20.6 30.5,-20.4 68.1,-28.2 72.3,-14.4 h 73.8 z"
           style="fill:#000000;fill-opacity:1;fill-rule:evenodd;stroke:#000000;stroke-width:0;stroke-linecap:round;stroke-linejoin:round;stroke-opacity:1"
           inkscape:connector-curvature="0" />
        <path
           id="path708"
           d="m 16411.214,-20649.649 68.1,28.2 v 0 l 61.4,41 52.1,52.1 10,15 31,46.4 28.2,68.1 14.4,72.3 v 73.8 l -14.4,72.3 -28.2,68.1 -4.2,6.4 -36.8,55 -52.1,52.1 -21.3,14.2 -40.1,26.8 -68.1,28.2 -72.3,14.4 h -73.8 l -72.3,-14.4 -68.1,-28.2 -40.1,-26.8 -21.3,-14.2 -52.1,-52.1 -36.8,-55 -4.2,-6.4 -28.2,-68.1 -14.4,-72.3 v -73.8 l 14.4,-72.3 28.2,-68.1 31,-46.4 10,-15 52.1,-52.1 61.4,-41 v 0 l 68.1,-28.2 72.3,-14.4 h 73.8 z"
           style="fill:#000000;fill-opacity:1;fill-rule:evenodd;stroke:#000000;stroke-width:0;stroke-linecap:round;stroke-linejoin:round;stroke-opacity:1"
           inkscape:connector-curvature="0" />
        <path
           id="path710"
           d="m 18045.514,-20660.749 30.4,9.3 28.1,15 24.6,20.2 20.2,24.6 15,28.1 9.3,30.4 3.3,34.1 v 418.8 l -3.3,34.1 -9.3,30.4 -15,28.1 -20.2,24.6 -24.6,20.2 -28.1,15 -30.4,9.3 -34.1,3.3 h -418.8 l -34.1,-3.3 -30.4,-9.3 -28.1,-15 -24.6,-20.2 -20.2,-24.6 -15,-28.1 -9.3,-30.4 -3.3,-34.1 v -418.8 l 3.3,-34.1 9.3,-30.4 15,-28.1 20.2,-24.6 24.6,-20.2 28.1,-15 30.4,-9.3 34.1,-3.3 h 418.8 z"
           style="fill:#000000;fill-opacity:1;fill-rule:evenodd;stroke:#000000;stroke-width:0;stroke-linecap:round;stroke-linejoin:round;stroke-opacity:1"
           inkscape:connector-curvature="0" />
        <path
           id="path712"
           d="m 25213.214,-20704.649 68.1,28.2 30.5,20.4 30.9,20.6 52.1,52.1 14.2,21.3 26.8,40.1 28.2,68.1 14.4,72.3 v 73.8 l -14.4,72.3 -28.2,68.1 -5.1,7.7 -35.9,53.7 -52.1,52.1 -4.3,2.9 -57.1,38.1 -68.1,28.2 -72.3,14.4 h -73.8 l -72.3,-14.4 -68.1,-28.2 -57.1,-38.1 -4.3,-2.9 -52.1,-52.1 -35.9,-53.7 -5.1,-7.7 -28.2,-68.1 -14.4,-72.3 v -73.8 l 14.4,-72.3 28.2,-68.1 26.8,-40.1 14.2,-21.3 52.1,-52.1 30.9,-20.6 30.5,-20.4 68.1,-28.2 72.3,-14.4 h 73.8 z"
           style="fill:#000000;fill-opacity:1;fill-rule:evenodd;stroke:#000000;stroke-width:0;stroke-linecap:round;stroke-linejoin:round;stroke-opacity:1"
           inkscape:connector-curvature="0" />
        <path
           id="path714"
           d="m 22952.514,-20723.749 30.4,9.3 28.1,15 24.6,20.2 20.2,24.6 15,28.1 9.3,30.4 3.3,34.1 v 418.8 l -3.3,34.1 -9.3,30.4 -15,28.1 -20.2,24.6 -24.6,20.2 -28.1,15 -30.4,9.3 -34.1,3.3 h -418.8 l -34.1,-3.3 -30.4,-9.3 -28.1,-15 -24.6,-20.2 -20.2,-24.6 -15,-28.1 -9.3,-30.4 -3.3,-34.1 v -418.8 l 3.3,-34.1 9.3,-30.4 15,-28.1 20.2,-24.6 24.6,-20.2 28.1,-15 30.4,-9.3 34.1,-3.3 h 418.8 z"
           style="fill:#000000;fill-opacity:1;fill-rule:evenodd;stroke:#000000;stroke-width:0;stroke-linecap:round;stroke-linejoin:round;stroke-opacity:1"
           inkscape:connector-curvature="0" />
        <path
           id="path716"
           d="m 21818.214,-20712.649 68.1,28.2 7.8,5.2 53.6,35.8 52.1,52.1 7,10.5 34,50.9 28.2,68.1 14.4,72.3 v 73.8 l -14.4,72.3 -28.2,68.1 -20.4,30.5 -20.6,30.9 -52.1,52.1 -0.6,0.4 -60.8,40.6 -68.1,28.2 -72.3,14.4 h -73.8 l -72.3,-14.4 -68.1,-28.2 -60.8,-40.6 -0.6,-0.4 -52.1,-52.1 -20.6,-30.9 -20.4,-30.5 -28.2,-68.1 -14.4,-72.3 v -73.8 l 14.4,-72.3 28.2,-68.1 34,-50.9 7,-10.5 52.1,-52.1 53.6,-35.8 7.8,-5.2 68.1,-28.2 72.3,-14.4 h 73.8 z"
           style="fill:#000000;fill-opacity:1;fill-rule:evenodd;stroke:#000000;stroke-width:0;stroke-linecap:round;stroke-linejoin:round;stroke-opacity:1"
           inkscape:connector-curvature="0" />
        <path
           id="path718"
           d="m 20818.214,-20712.649 68.1,28.2 7.8,5.2 53.6,35.8 52.1,52.1 7,10.5 34,50.9 28.2,68.1 14.4,72.3 v 73.8 l -14.4,72.3 -28.2,68.1 -20.4,30.5 -20.6,30.9 -52.1,52.1 -0.6,0.4 -60.8,40.6 -68.1,28.2 -72.3,14.4 h -73.8 l -72.3,-14.4 -68.1,-28.2 -60.8,-40.6 -0.6,-0.4 -52.1,-52.1 -20.6,-30.9 -20.4,-30.5 -28.2,-68.1 -14.4,-72.3 v -73.8 l 14.4,-72.3 28.2,-68.1 34,-50.9 7,-10.5 52.1,-52.1 53.6,-35.8 7.8,-5.2 68.1,-28.2 72.3,-14.4 h 73.8 z"
           style="fill:#000000;fill-opacity:1;fill-rule:evenodd;stroke:#000000;stroke-width:0;stroke-linecap:round;stroke-linejoin:round;stroke-opacity:1"
           inkscape:connector-curvature="0" />
        <path
           id="path720"
           d="m 19818.214,-20712.649 68.1,28.2 7.8,5.2 53.6,35.8 52.1,52.1 7,10.5 34,50.9 28.2,68.1 14.4,72.3 v 73.8 l -14.4,72.3 -28.2,68.1 -20.4,30.5 -20.6,30.9 -52.1,52.1 -0.6,0.4 -60.8,40.6 -68.1,28.2 -72.3,14.4 h -73.8 l -72.3,-14.4 -68.1,-28.2 -60.8,-40.6 -0.6,-0.4 -52.1,-52.1 -20.6,-30.9 -20.4,-30.5 -28.2,-68.1 -14.4,-72.3 v -73.8 l 14.4,-72.3 28.2,-68.1 34,-50.9 7,-10.5 52.1,-52.1 53.6,-35.8 7.8,-5.2 68.1,-28.2 72.3,-14.4 h 73.8 z"
           style="fill:#000000;fill-opacity:1;fill-rule:evenodd;stroke:#000000;stroke-width:0;stroke-linecap:round;stroke-linejoin:round;stroke-opacity:1"
           inkscape:connector-curvature="0" />
        <path
           id="path722"
           d="m 27511.214,-21159.649 68.1,28.2 v 0 l 61.4,41 52.1,52.1 5,7.5 36,53.9 28.2,68.1 14.4,72.3 v 73.8 l -14.4,72.3 -28.2,68.1 -4,6.1 -37,55.3 -52.1,52.1 -14.7,9.8 -46.7,31.2 -68.1,28.2 -72.3,14.4 h -73.8 l -72.3,-14.4 -68.1,-28.2 -46.7,-31.2 -14.7,-9.8 -52.1,-52.1 -37,-55.3 -4,-6.1 -28.2,-68.1 -14.4,-72.3 v -73.8 l 14.4,-72.3 28.2,-68.1 36,-53.9 5,-7.5 52.1,-52.1 61.4,-41 v 0 l 68.1,-28.2 72.3,-14.4 h 73.8 z"
           style="fill:#000000;fill-opacity:1;fill-rule:evenodd;stroke:#000000;stroke-width:0;stroke-linecap:round;stroke-linejoin:round;stroke-opacity:1"
           inkscape:connector-curvature="0" />
        <path
           id="path724"
           d="m 14289.214,-21281.649 68.1,28.2 30.5,20.4 30.9,20.6 52.1,52.1 v 0 l 41,61.4 28.2,68.1 14.4,72.3 v 73.8 l -14.4,72.3 -28.2,68.1 -16.9,25.3 -24.1,36.1 -52.1,52.1 -14.1,9.4 -47.3,31.6 -68.1,28.2 -72.3,14.4 h -73.8 l -72.3,-14.4 -68.1,-28.2 -47.3,-31.6 -14.1,-9.4 -52.1,-52.1 -24.1,-36.1 -16.9,-25.3 -28.2,-68.1 -14.4,-72.3 v -73.8 l 14.4,-72.3 28.2,-68.1 41,-61.4 v 0 l 52.1,-52.1 30.9,-20.6 30.5,-20.4 68.1,-28.2 72.3,-14.4 h 73.8 z"
           style="fill:#000000;fill-opacity:1;fill-rule:evenodd;stroke:#000000;stroke-width:0;stroke-linecap:round;stroke-linejoin:round;stroke-opacity:1"
           inkscape:connector-curvature="0" />
        <path
           id="path726"
           d="m 13289.214,-21281.649 68.1,28.2 30.5,20.4 30.9,20.6 52.1,52.1 v 0 l 41,61.4 28.2,68.1 14.4,72.3 v 73.8 l -14.4,72.3 -28.2,68.1 -16.9,25.3 -24.1,36.1 -52.1,52.1 -14.1,9.4 -47.3,31.6 -68.1,28.2 -72.3,14.4 h -73.8 l -72.3,-14.4 -68.1,-28.2 -47.3,-31.6 -14.1,-9.4 -52.1,-52.1 -24.1,-36.1 -16.9,-25.3 -28.2,-68.1 -14.4,-72.3 v -73.8 l 14.4,-72.3 28.2,-68.1 41,-61.4 v 0 l 52.1,-52.1 30.9,-20.6 30.5,-20.4 68.1,-28.2 72.3,-14.4 h 73.8 z"
           style="fill:#000000;fill-opacity:1;fill-rule:evenodd;stroke:#000000;stroke-width:0;stroke-linecap:round;stroke-linejoin:round;stroke-opacity:1"
           inkscape:connector-curvature="0" />
        <path
           id="path728"
           d="m 16545.514,-21660.749 30.4,9.3 28.1,15 24.6,20.2 20.2,24.6 15,28.1 9.3,30.4 3.3,34.1 v 418.8 l -3.3,34.1 -9.3,30.4 -15,28.1 -20.2,24.6 -24.6,20.2 -28.1,15 -30.4,9.3 -34.1,3.3 h -418.8 l -34.1,-3.3 -30.4,-9.3 -28.1,-15 -24.6,-20.2 -20.2,-24.6 -15,-28.1 -9.3,-30.4 -3.3,-34.1 v -418.8 l 3.3,-34.1 9.3,-30.4 15,-28.1 20.2,-24.6 24.6,-20.2 28.1,-15 30.4,-9.3 34.1,-3.3 h 418.8 z"
           style="fill:#000000;fill-opacity:1;fill-rule:evenodd;stroke:#000000;stroke-width:0;stroke-linecap:round;stroke-linejoin:round;stroke-opacity:1"
           inkscape:connector-curvature="0" />
        <path
           id="path730"
           d="m 17911.214,-21649.649 68.1,28.2 v 0 l 61.4,41 52.1,52.1 v 0 l 41,61.4 28.2,68.1 14.4,72.3 v 73.8 l -14.4,72.3 -28.2,68.1 -14.6,21.9 -26.4,39.5 -52.1,52.1 -0.6,0.4 -60.8,40.6 -68.1,28.2 -72.3,14.4 h -73.8 l -72.3,-14.4 -68.1,-28.2 -60.8,-40.6 -0.6,-0.4 -52.1,-52.1 -26.4,-39.5 -14.6,-21.9 -28.2,-68.1 -14.4,-72.3 v -73.8 l 14.4,-72.3 28.2,-68.1 41,-61.4 v 0 l 52.1,-52.1 61.4,-41 v 0 l 68.1,-28.2 72.3,-14.4 h 73.8 z"
           style="fill:#000000;fill-opacity:1;fill-rule:evenodd;stroke:#000000;stroke-width:0;stroke-linecap:round;stroke-linejoin:round;stroke-opacity:1"
           inkscape:connector-curvature="0" />
        <path
           id="path732"
           d="m 21211.214,-22159.649 68.1,28.2 28.7,19.1 32.7,21.9 52.1,52.1 v 0 l 41,61.4 28.2,68.1 14.4,72.3 v 73.8 l -14.4,72.3 -28.2,68.1 -4,6.1 -37,55.3 -52.1,52.1 -14.7,9.8 -46.7,31.2 -68.1,28.2 -72.3,14.4 h -73.8 l -72.3,-14.4 -68.1,-28.2 -46.7,-31.2 -14.7,-9.8 -52.1,-52.1 -37,-55.3 -4,-6.1 -28.2,-68.1 -14.4,-72.3 v -73.8 l 14.4,-72.3 28.2,-68.1 41,-61.4 v 0 l 52.1,-52.1 32.7,-21.9 28.7,-19.1 68.1,-28.2 72.3,-14.4 h 73.8 z"
           style="fill:#000000;fill-opacity:1;fill-rule:evenodd;stroke:#000000;stroke-width:0;stroke-linecap:round;stroke-linejoin:round;stroke-opacity:1"
           inkscape:connector-curvature="0" />
        <path
           id="path734"
           d="m 22211.214,-22159.649 68.1,28.2 28.7,19.1 32.7,21.9 52.1,52.1 v 0 l 41,61.4 28.2,68.1 14.4,72.3 v 73.8 l -14.4,72.3 -28.2,68.1 -4,6.1 -37,55.3 -52.1,52.1 -14.7,9.8 -46.7,31.2 -68.1,28.2 -72.3,14.4 h -73.8 l -72.3,-14.4 -68.1,-28.2 -46.7,-31.2 -14.7,-9.8 -52.1,-52.1 -37,-55.3 -4,-6.1 -28.2,-68.1 -14.4,-72.3 v -73.8 l 14.4,-72.3 28.2,-68.1 41,-61.4 v 0 l 52.1,-52.1 32.7,-21.9 28.7,-19.1 68.1,-28.2 72.3,-14.4 h 73.8 z"
           style="fill:#000000;fill-opacity:1;fill-rule:evenodd;stroke:#000000;stroke-width:0;stroke-linecap:round;stroke-linejoin:round;stroke-opacity:1"
           inkscape:connector-curvature="0" />
        <path
           id="path736"
           d="m 23211.214,-22159.649 68.1,28.2 28.7,19.1 32.7,21.9 52.1,52.1 v 0 l 41,61.4 28.2,68.1 14.4,72.3 v 73.8 l -14.4,72.3 -28.2,68.1 -4,6.1 -37,55.3 -52.1,52.1 -14.7,9.8 -46.7,31.2 -68.1,28.2 -72.3,14.4 h -73.8 l -72.3,-14.4 -68.1,-28.2 -46.7,-31.2 -14.7,-9.8 -52.1,-52.1 -37,-55.3 -4,-6.1 -28.2,-68.1 -14.4,-72.3 v -73.8 l 14.4,-72.3 28.2,-68.1 41,-61.4 v 0 l 52.1,-52.1 32.7,-21.9 28.7,-19.1 68.1,-28.2 72.3,-14.4 h 73.8 z"
           style="fill:#000000;fill-opacity:1;fill-rule:evenodd;stroke:#000000;stroke-width:0;stroke-linecap:round;stroke-linejoin:round;stroke-opacity:1"
           inkscape:connector-curvature="0" />
        <path
           id="path738"
           d="m 17911.214,-22649.649 68.1,28.2 v 0 l 61.4,41 52.1,52.1 v 0 l 41,61.4 28.2,68.1 14.4,72.3 v 73.8 l -14.4,72.3 -28.2,68.1 v 0 l -41,61.4 -52.1,52.1 -30.9,20.6 -30.5,20.4 -68.1,28.2 -72.3,14.4 h -73.8 l -72.3,-14.4 -68.1,-28.2 -30.5,-20.4 -30.9,-20.6 -52.1,-52.1 -41,-61.4 v 0 l -28.2,-68.1 -14.4,-72.3 v -73.8 l 14.4,-72.3 28.2,-68.1 41,-61.4 v 0 l 52.1,-52.1 61.4,-41 v 0 l 68.1,-28.2 72.3,-14.4 h 73.8 z"
           style="fill:#000000;fill-opacity:1;fill-rule:evenodd;stroke:#000000;stroke-width:0;stroke-linecap:round;stroke-linejoin:round;stroke-opacity:1"
           inkscape:connector-curvature="0" />
        <path
           id="path740"
           d="m 13101.214,-22659.649 68.1,28.2 15,10 46.4,31 52.1,52.1 6.7,10 34.3,51.4 28.2,68.1 14.4,72.3 v 73.8 l -14.4,72.3 -28.2,68.1 -20.4,30.5 -20.6,30.9 -52.1,52.1 -30.9,20.6 -30.5,20.4 -68.1,28.2 -72.3,14.4 h -73.8 l -72.3,-14.4 -68.1,-28.2 -30.5,-20.4 -30.9,-20.6 -52.1,-52.1 -20.6,-30.9 -20.4,-30.5 -28.2,-68.1 -14.4,-72.3 v -73.8 l 14.4,-72.3 28.2,-68.1 34.3,-51.4 6.7,-10 52.1,-52.1 46.4,-31 15,-10 68.1,-28.2 72.3,-14.4 h 73.8 z"
           style="fill:#000000;fill-opacity:1;fill-rule:evenodd;stroke:#000000;stroke-width:0;stroke-linecap:round;stroke-linejoin:round;stroke-opacity:1"
           inkscape:connector-curvature="0" />
        <path
           id="path742"
           d="m 12101.214,-22659.649 68.1,28.2 15,10 46.4,31 52.1,52.1 6.7,10 34.3,51.4 28.2,68.1 14.4,72.3 v 73.8 l -14.4,72.3 -28.2,68.1 -20.4,30.5 -20.6,30.9 -52.1,52.1 -30.9,20.6 -30.5,20.4 -68.1,28.2 -72.3,14.4 h -73.8 l -72.3,-14.4 -68.1,-28.2 -30.5,-20.4 -30.9,-20.6 -52.1,-52.1 -20.6,-30.9 -20.4,-30.5 -28.2,-68.1 -14.4,-72.3 v -73.8 l 14.4,-72.3 28.2,-68.1 34.3,-51.4 6.7,-10 52.1,-52.1 46.4,-31 15,-10 68.1,-28.2 72.3,-14.4 h 73.8 z"
           style="fill:#000000;fill-opacity:1;fill-rule:evenodd;stroke:#000000;stroke-width:0;stroke-linecap:round;stroke-linejoin:round;stroke-opacity:1"
           inkscape:connector-curvature="0" />
        <path
           id="path744"
           d="m 20211.214,-22659.649 68.1,28.2 15,10 46.4,31 52.1,52.1 6.7,10 34.3,51.4 28.2,68.1 14.4,72.3 v 73.8 l -14.4,72.3 -28.2,68.1 -20.4,30.5 -20.6,30.9 -52.1,52.1 -30.9,20.6 -30.5,20.4 -68.1,28.2 -72.3,14.4 h -73.8 l -72.3,-14.4 -68.1,-28.2 -30.5,-20.4 -30.9,-20.6 -52.1,-52.1 -20.6,-30.9 -20.4,-30.5 -28.2,-68.1 -14.4,-72.3 v -73.8 l 14.4,-72.3 28.2,-68.1 34.3,-51.4 6.7,-10 52.1,-52.1 46.4,-31 15,-10 68.1,-28.2 72.3,-14.4 h 73.8 z"
           style="fill:#000000;fill-opacity:1;fill-rule:evenodd;stroke:#000000;stroke-width:0;stroke-linecap:round;stroke-linejoin:round;stroke-opacity:1"
           inkscape:connector-curvature="0" />
        <path
           id="path746"
           d="m 19211.214,-22659.649 68.1,28.2 15,10 46.4,31 52.1,52.1 6.7,10 34.3,51.4 28.2,68.1 14.4,72.3 v 73.8 l -14.4,72.3 -28.2,68.1 -20.4,30.5 -20.6,30.9 -52.1,52.1 -30.9,20.6 -30.5,20.4 -68.1,28.2 -72.3,14.4 h -73.8 l -72.3,-14.4 -68.1,-28.2 -30.5,-20.4 -30.9,-20.6 -52.1,-52.1 -20.6,-30.9 -20.4,-30.5 -28.2,-68.1 -14.4,-72.3 v -73.8 l 14.4,-72.3 28.2,-68.1 34.3,-51.4 6.7,-10 52.1,-52.1 46.4,-31 15,-10 68.1,-28.2 72.3,-14.4 h 73.8 z"
           style="fill:#000000;fill-opacity:1;fill-rule:evenodd;stroke:#000000;stroke-width:0;stroke-linecap:round;stroke-linejoin:round;stroke-opacity:1"
           inkscape:connector-curvature="0" />
        <path
           id="path748"
           d="m 25611.214,-22659.649 68.1,28.2 15,10 46.4,31 52.1,52.1 6.7,10 34.3,51.4 28.2,68.1 14.4,72.3 v 73.8 l -14.4,72.3 -28.2,68.1 -20.4,30.5 -20.6,30.9 -52.1,52.1 -30.9,20.6 -30.5,20.4 -68.1,28.2 -72.3,14.4 h -73.8 l -72.3,-14.4 -68.1,-28.2 -30.5,-20.4 -30.9,-20.6 -52.1,-52.1 -20.6,-30.9 -20.4,-30.5 -28.2,-68.1 -14.4,-72.3 v -73.8 l 14.4,-72.3 28.2,-68.1 34.3,-51.4 6.7,-10 52.1,-52.1 46.4,-31 15,-10 68.1,-28.2 72.3,-14.4 h 73.8 z"
           style="fill:#000000;fill-opacity:1;fill-rule:evenodd;stroke:#000000;stroke-width:0;stroke-linecap:round;stroke-linejoin:round;stroke-opacity:1"
           inkscape:connector-curvature="0" />
        <path
           id="path750"
           d="m 26611.214,-22659.649 68.1,28.2 15,10 46.4,31 52.1,52.1 6.7,10 34.3,51.4 28.2,68.1 14.4,72.3 v 73.8 l -14.4,72.3 -28.2,68.1 -20.4,30.5 -20.6,30.9 -52.1,52.1 -30.9,20.6 -30.5,20.4 -68.1,28.2 -72.3,14.4 h -73.8 l -72.3,-14.4 -68.1,-28.2 -30.5,-20.4 -30.9,-20.6 -52.1,-52.1 -20.6,-30.9 -20.4,-30.5 -28.2,-68.1 -14.4,-72.3 v -73.8 l 14.4,-72.3 28.2,-68.1 34.3,-51.4 6.7,-10 52.1,-52.1 46.4,-31 15,-10 68.1,-28.2 72.3,-14.4 h 73.8 z"
           style="fill:#000000;fill-opacity:1;fill-rule:evenodd;stroke:#000000;stroke-width:0;stroke-linecap:round;stroke-linejoin:round;stroke-opacity:1"
           inkscape:connector-curvature="0" />
        <g
           transform="translate(-37897.986,-47799.649)"
           style="fill:#000000;fill-opacity:0;stroke:#000000;stroke-width:19.68499947;stroke-linecap:round;stroke-linejoin:round;stroke-opacity:1"
           id="g836">
          <path
             inkscape:connector-curvature="0"
             d="M 49212,37401 H 64960"
             id="path756" />
          <path
             inkscape:connector-curvature="0"
             d="m 47244,35433 1968,1968"
             id="path758" />
          <path
             inkscape:connector-curvature="0"
             d="M 49212,23622 H 64960"
             id="path760" />
          <path
             inkscape:connector-curvature="0"
             d="m 47244,25590 1968,-1968"
             id="path762" />
          <path
             inkscape:connector-curvature="0"
             d="m 66929,35433 -1969,1968"
             id="path764" />
          <path
             inkscape:connector-curvature="0"
             d="M 66929,25590 64960,23622"
             id="path766" />
          <path
             inkscape:connector-curvature="0"
             d="m 66929,25590 v 9843"
             id="path768" />
          <path
             inkscape:connector-curvature="0"
             d="m 47244,25590 v 9843"
             id="path770" />
          <g
             id="g772" />
          <g
             id="g774" />
          <g
             id="g776" />
          <g
             id="g778" />
          <g
             id="g780" />
          <g
             id="g782" />
          <g
             id="g784" />
          <g
             id="g786" />
          <g
             id="g788" />
          <g
             id="g790" />
          <g
             id="g792" />
          <g
             id="g794" />
          <g
             id="g796" />
          <g
             id="g798" />
          <g
             id="g800" />
          <g
             id="g802" />
          <g
             id="g804" />
          <g
             id="g806" />
          <g
             id="g808" />
          <g
             id="g810" />
          <g
             id="g812" />
          <g
             id="g814" />
          <g
             id="g816" />
          <g
             id="g818" />
          <g
             id="g820" />
          <g
             id="g822" />
          <g
             id="g824" />
          <g
             id="g826" />
          <g
             id="g828" />
          <g
             id="g830" />
          <g
             id="g832" />
          <g
             id="g834" />
        </g>
      </g>
      <use
         x="0"
         y="0"
         xlink:href="#g2581"
         id="use2583"
         transform="translate(44683.746)"
         width="100%"
         height="100%" />
      <use
         x="0"
         y="0"
         xlink:href="#g2581"
         id="use2585"
         transform="translate(22341.874)"
         width="100%"
         height="100%" />
    </g>
  </g>
</svg>
