<?xml version="1.0" standalone="no"?>
 <!DOCTYPE svg PUBLIC "-//W3C//DTD SVG 1.1//EN" 
 "http://www.w3.org/Graphics/SVG/1.1/DTD/svg11.dtd"> 
<svg xmlns="http://www.w3.org/2000/svg" version="1.1" 
    width="29.7002cm" height="21.0007cm" viewBox="0 0 116930 82680 ">
<title>SVG Picture created as smart48-F_Mask.svg date 2020/02/29 23:11:22 </title>
  <desc>Picture generated by PCBNEW </desc>
<g style="fill:#000000; fill-opacity:1;stroke:#000000; stroke-opacity:1;
stroke-linecap:round; stroke-linejoin:round; "
 transform="translate(0 0) scale(1 1)">
</g>
<g style="fill:#000000; fill-opacity:0.0; 
stroke:#000000; stroke-width:-0.000393701; stroke-opacity:1; 
stroke-linecap:round; stroke-linejoin:round;">
</g>
<g style="fill:#000000; fill-opacity:0.0; 
stroke:#000000; stroke-width:39.3701; stroke-opacity:1; 
stroke-linecap:round; stroke-linejoin:round;">
</g>
<g style="fill:#000000; fill-opacity:0.0; 
stroke:#000000; stroke-width:59.0551; stroke-opacity:1; 
stroke-linecap:round; stroke-linejoin:round;">
<rect x="69685.9" y="71262.7" width="42519.7" height="6692.91" rx="0" />
</g>
<g style="fill:#000000; fill-opacity:0.0; 
stroke:#000000; stroke-width:39.3701; stroke-opacity:1; 
stroke-linecap:round; stroke-linejoin:round;">
</g>
<g style="fill:#000000; fill-opacity:0.0; 
stroke:#000000; stroke-width:59.0551; stroke-opacity:1; 
stroke-linecap:round; stroke-linejoin:round;">
<rect x="3937.01" y="3937.01" width="109056" height="74806" rx="0" />
</g>
<g style="fill:#000000; fill-opacity:0.0; 
stroke:#000000; stroke-width:39.3701; stroke-opacity:1; 
stroke-linecap:round; stroke-linejoin:round;">
</g>
<g style="fill:#000000; fill-opacity:0.0; 
stroke:#000000; stroke-width:59.0551; stroke-opacity:1; 
stroke-linecap:round; stroke-linejoin:round;">
<rect x="4724.41" y="4724.41" width="107481" height="73231.2" rx="0" />
</g>
<g style="fill:#000000; fill-opacity:0.0; 
stroke:#000000; stroke-width:39.3701; stroke-opacity:1; 
stroke-linecap:round; stroke-linejoin:round;">
</g>
<g style="fill:#000000; fill-opacity:0.0; 
stroke:#000000; stroke-width:59.0551; stroke-opacity:1; 
stroke-linecap:round; stroke-linejoin:round;">
<path d="M23622 4724
L23622 3937
" />
</g>
<g style="fill:#000000; fill-opacity:0.0; 
stroke:#000000; stroke-width:39.3701; stroke-opacity:1; 
stroke-linecap:round; stroke-linejoin:round;">
</g>
<g style="fill:#000000; fill-opacity:0.0; 
stroke:#000000; stroke-width:59.0551; stroke-opacity:1; 
stroke-linecap:round; stroke-linejoin:round;">
<path d="M43307 4724
L43307 3937
" />
</g>
<g style="fill:#000000; fill-opacity:0.0; 
stroke:#000000; stroke-width:39.3701; stroke-opacity:1; 
stroke-linecap:round; stroke-linejoin:round;">
</g>
<g style="fill:#000000; fill-opacity:0.0; 
stroke:#000000; stroke-width:59.0551; stroke-opacity:1; 
stroke-linecap:round; stroke-linejoin:round;">
<path d="M62992 4724
L62992 3937
" />
</g>
<g style="fill:#000000; fill-opacity:0.0; 
stroke:#000000; stroke-width:39.3701; stroke-opacity:1; 
stroke-linecap:round; stroke-linejoin:round;">
</g>
<g style="fill:#000000; fill-opacity:0.0; 
stroke:#000000; stroke-width:59.0551; stroke-opacity:1; 
stroke-linecap:round; stroke-linejoin:round;">
<path d="M82677 4724
L82677 3937
" />
</g>
<g style="fill:#000000; fill-opacity:0.0; 
stroke:#000000; stroke-width:39.3701; stroke-opacity:1; 
stroke-linecap:round; stroke-linejoin:round;">
</g>
<g style="fill:#000000; fill-opacity:0.0; 
stroke:#000000; stroke-width:59.0551; stroke-opacity:1; 
stroke-linecap:round; stroke-linejoin:round;">
<path d="M102362 4724
L102362 3937
" />
</g>
<g style="fill:#000000; fill-opacity:0.0; 
stroke:#000000; stroke-width:39.3701; stroke-opacity:1; 
stroke-linecap:round; stroke-linejoin:round;">
</g>
<g style="fill:#000000; fill-opacity:0.0; 
stroke:#000000; stroke-width:59.0551; stroke-opacity:1; 
stroke-linecap:round; stroke-linejoin:round;">
<text x="13779.5" y="4586.61"
textLength="546.494" font-size="682.415" lengthAdjust="spacingAndGlyphs"
text-anchor="start" opacity="0">1</text>
<path d="M14199 4562
L13906 4562
" />
<path d="M14052 4562
L14052 4050
L14004 4123
L13955 4172
L13906 4196
" />
</g>
<g style="fill:#000000; fill-opacity:0.0; 
stroke:#000000; stroke-width:39.3701; stroke-opacity:1; 
stroke-linecap:round; stroke-linejoin:round;">
</g>
<g style="fill:#000000; fill-opacity:0.0; 
stroke:#000000; stroke-width:59.0551; stroke-opacity:1; 
stroke-linecap:round; stroke-linejoin:round;">
<text x="33464.6" y="4586.61"
textLength="546.494" font-size="682.415" lengthAdjust="spacingAndGlyphs"
text-anchor="start" opacity="0">2</text>
<path d="M33591 4099
L33615 4074
L33664 4050
L33786 4050
L33835 4074
L33859 4099
L33884 4147
L33884 4196
L33859 4269
L33567 4562
L33884 4562
" />
</g>
<g style="fill:#000000; fill-opacity:0.0; 
stroke:#000000; stroke-width:39.3701; stroke-opacity:1; 
stroke-linecap:round; stroke-linejoin:round;">
</g>
<g style="fill:#000000; fill-opacity:0.0; 
stroke:#000000; stroke-width:59.0551; stroke-opacity:1; 
stroke-linecap:round; stroke-linejoin:round;">
<text x="53149.6" y="4586.61"
textLength="546.494" font-size="682.415" lengthAdjust="spacingAndGlyphs"
text-anchor="start" opacity="0">3</text>
<path d="M53252 4050
L53569 4050
L53398 4245
L53471 4245
L53520 4269
L53544 4294
L53569 4342
L53569 4464
L53544 4513
L53520 4537
L53471 4562
L53325 4562
L53276 4537
L53252 4513
" />
</g>
<g style="fill:#000000; fill-opacity:0.0; 
stroke:#000000; stroke-width:39.3701; stroke-opacity:1; 
stroke-linecap:round; stroke-linejoin:round;">
</g>
<g style="fill:#000000; fill-opacity:0.0; 
stroke:#000000; stroke-width:59.0551; stroke-opacity:1; 
stroke-linecap:round; stroke-linejoin:round;">
<text x="72834.6" y="4586.61"
textLength="546.494" font-size="682.415" lengthAdjust="spacingAndGlyphs"
text-anchor="start" opacity="0">4</text>
<path d="M73205 4221
L73205 4562
" />
<path d="M73083 4026
L72961 4391
L73278 4391
" />
</g>
<g style="fill:#000000; fill-opacity:0.0; 
stroke:#000000; stroke-width:39.3701; stroke-opacity:1; 
stroke-linecap:round; stroke-linejoin:round;">
</g>
<g style="fill:#000000; fill-opacity:0.0; 
stroke:#000000; stroke-width:59.0551; stroke-opacity:1; 
stroke-linecap:round; stroke-linejoin:round;">
<text x="92519.7" y="4586.61"
textLength="546.494" font-size="682.415" lengthAdjust="spacingAndGlyphs"
text-anchor="start" opacity="0">5</text>
<path d="M92914 4050
L92671 4050
L92646 4294
L92671 4269
L92719 4245
L92841 4245
L92890 4269
L92914 4294
L92939 4342
L92939 4464
L92914 4513
L92890 4537
L92841 4562
L92719 4562
L92671 4537
L92646 4513
" />
</g>
<g style="fill:#000000; fill-opacity:0.0; 
stroke:#000000; stroke-width:39.3701; stroke-opacity:1; 
stroke-linecap:round; stroke-linejoin:round;">
</g>
<g style="fill:#000000; fill-opacity:0.0; 
stroke:#000000; stroke-width:59.0551; stroke-opacity:1; 
stroke-linecap:round; stroke-linejoin:round;">
<text x="112205" y="4586.61"
textLength="546.494" font-size="682.415" lengthAdjust="spacingAndGlyphs"
text-anchor="start" opacity="0">6</text>
<path d="M112575 4050
L112477 4050
L112429 4074
L112404 4099
L112356 4172
L112331 4269
L112331 4464
L112356 4513
L112380 4537
L112429 4562
L112526 4562
L112575 4537
L112599 4513
L112624 4464
L112624 4342
L112599 4294
L112575 4269
L112526 4245
L112429 4245
L112380 4269
L112356 4294
L112331 4342
" />
</g>
<g style="fill:#000000; fill-opacity:0.0; 
stroke:#000000; stroke-width:39.3701; stroke-opacity:1; 
stroke-linecap:round; stroke-linejoin:round;">
</g>
<g style="fill:#000000; fill-opacity:0.0; 
stroke:#000000; stroke-width:59.0551; stroke-opacity:1; 
stroke-linecap:round; stroke-linejoin:round;">
<path d="M23622 77955
L23622 78742
" />
</g>
<g style="fill:#000000; fill-opacity:0.0; 
stroke:#000000; stroke-width:39.3701; stroke-opacity:1; 
stroke-linecap:round; stroke-linejoin:round;">
</g>
<g style="fill:#000000; fill-opacity:0.0; 
stroke:#000000; stroke-width:59.0551; stroke-opacity:1; 
stroke-linecap:round; stroke-linejoin:round;">
<path d="M43307 77955
L43307 78742
" />
</g>
<g style="fill:#000000; fill-opacity:0.0; 
stroke:#000000; stroke-width:39.3701; stroke-opacity:1; 
stroke-linecap:round; stroke-linejoin:round;">
</g>
<g style="fill:#000000; fill-opacity:0.0; 
stroke:#000000; stroke-width:59.0551; stroke-opacity:1; 
stroke-linecap:round; stroke-linejoin:round;">
<path d="M62992 77955
L62992 78742
" />
</g>
<g style="fill:#000000; fill-opacity:0.0; 
stroke:#000000; stroke-width:39.3701; stroke-opacity:1; 
stroke-linecap:round; stroke-linejoin:round;">
</g>
<g style="fill:#000000; fill-opacity:0.0; 
stroke:#000000; stroke-width:59.0551; stroke-opacity:1; 
stroke-linecap:round; stroke-linejoin:round;">
<path d="M82677 77955
L82677 78742
" />
</g>
<g style="fill:#000000; fill-opacity:0.0; 
stroke:#000000; stroke-width:39.3701; stroke-opacity:1; 
stroke-linecap:round; stroke-linejoin:round;">
</g>
<g style="fill:#000000; fill-opacity:0.0; 
stroke:#000000; stroke-width:59.0551; stroke-opacity:1; 
stroke-linecap:round; stroke-linejoin:round;">
<path d="M102362 77955
L102362 78742
" />
</g>
<g style="fill:#000000; fill-opacity:0.0; 
stroke:#000000; stroke-width:39.3701; stroke-opacity:1; 
stroke-linecap:round; stroke-linejoin:round;">
</g>
<g style="fill:#000000; fill-opacity:0.0; 
stroke:#000000; stroke-width:59.0551; stroke-opacity:1; 
stroke-linecap:round; stroke-linejoin:round;">
<text x="13779.5" y="78605.2"
textLength="546.494" font-size="682.415" lengthAdjust="spacingAndGlyphs"
text-anchor="start" opacity="0">1</text>
<path d="M14199 78580
L13906 78580
" />
<path d="M14052 78580
L14052 78069
L14004 78142
L13955 78190
L13906 78215
" />
</g>
<g style="fill:#000000; fill-opacity:0.0; 
stroke:#000000; stroke-width:39.3701; stroke-opacity:1; 
stroke-linecap:round; stroke-linejoin:round;">
</g>
<g style="fill:#000000; fill-opacity:0.0; 
stroke:#000000; stroke-width:59.0551; stroke-opacity:1; 
stroke-linecap:round; stroke-linejoin:round;">
<text x="33464.6" y="78605.2"
textLength="546.494" font-size="682.415" lengthAdjust="spacingAndGlyphs"
text-anchor="start" opacity="0">2</text>
<path d="M33591 78117
L33615 78093
L33664 78069
L33786 78069
L33835 78093
L33859 78117
L33884 78166
L33884 78215
L33859 78288
L33567 78580
L33884 78580
" />
</g>
<g style="fill:#000000; fill-opacity:0.0; 
stroke:#000000; stroke-width:39.3701; stroke-opacity:1; 
stroke-linecap:round; stroke-linejoin:round;">
</g>
<g style="fill:#000000; fill-opacity:0.0; 
stroke:#000000; stroke-width:59.0551; stroke-opacity:1; 
stroke-linecap:round; stroke-linejoin:round;">
<text x="53149.6" y="78605.2"
textLength="546.494" font-size="682.415" lengthAdjust="spacingAndGlyphs"
text-anchor="start" opacity="0">3</text>
<path d="M53252 78069
L53569 78069
L53398 78263
L53471 78263
L53520 78288
L53544 78312
L53569 78361
L53569 78483
L53544 78532
L53520 78556
L53471 78580
L53325 78580
L53276 78556
L53252 78532
" />
</g>
<g style="fill:#000000; fill-opacity:0.0; 
stroke:#000000; stroke-width:39.3701; stroke-opacity:1; 
stroke-linecap:round; stroke-linejoin:round;">
</g>
<g style="fill:#000000; fill-opacity:0.0; 
stroke:#000000; stroke-width:59.0551; stroke-opacity:1; 
stroke-linecap:round; stroke-linejoin:round;">
<text x="72834.6" y="78605.2"
textLength="546.494" font-size="682.415" lengthAdjust="spacingAndGlyphs"
text-anchor="start" opacity="0">4</text>
<path d="M73205 78239
L73205 78580
" />
<path d="M73083 78044
L72961 78410
L73278 78410
" />
</g>
<g style="fill:#000000; fill-opacity:0.0; 
stroke:#000000; stroke-width:39.3701; stroke-opacity:1; 
stroke-linecap:round; stroke-linejoin:round;">
</g>
<g style="fill:#000000; fill-opacity:0.0; 
stroke:#000000; stroke-width:59.0551; stroke-opacity:1; 
stroke-linecap:round; stroke-linejoin:round;">
<text x="92519.7" y="78605.2"
textLength="546.494" font-size="682.415" lengthAdjust="spacingAndGlyphs"
text-anchor="start" opacity="0">5</text>
<path d="M92914 78069
L92671 78069
L92646 78312
L92671 78288
L92719 78263
L92841 78263
L92890 78288
L92914 78312
L92939 78361
L92939 78483
L92914 78532
L92890 78556
L92841 78580
L92719 78580
L92671 78556
L92646 78532
" />
</g>
<g style="fill:#000000; fill-opacity:0.0; 
stroke:#000000; stroke-width:39.3701; stroke-opacity:1; 
stroke-linecap:round; stroke-linejoin:round;">
</g>
<g style="fill:#000000; fill-opacity:0.0; 
stroke:#000000; stroke-width:59.0551; stroke-opacity:1; 
stroke-linecap:round; stroke-linejoin:round;">
<text x="112205" y="78605.2"
textLength="546.494" font-size="682.415" lengthAdjust="spacingAndGlyphs"
text-anchor="start" opacity="0">6</text>
<path d="M112575 78069
L112477 78069
L112429 78093
L112404 78117
L112356 78190
L112331 78288
L112331 78483
L112356 78532
L112380 78556
L112429 78580
L112526 78580
L112575 78556
L112599 78532
L112624 78483
L112624 78361
L112599 78312
L112575 78288
L112526 78263
L112429 78263
L112380 78288
L112356 78312
L112331 78361
" />
</g>
<g style="fill:#000000; fill-opacity:0.0; 
stroke:#000000; stroke-width:39.3701; stroke-opacity:1; 
stroke-linecap:round; stroke-linejoin:round;">
</g>
<g style="fill:#000000; fill-opacity:0.0; 
stroke:#000000; stroke-width:59.0551; stroke-opacity:1; 
stroke-linecap:round; stroke-linejoin:round;">
<path d="M3937 23622
L4724 23622
" />
</g>
<g style="fill:#000000; fill-opacity:0.0; 
stroke:#000000; stroke-width:39.3701; stroke-opacity:1; 
stroke-linecap:round; stroke-linejoin:round;">
</g>
<g style="fill:#000000; fill-opacity:0.0; 
stroke:#000000; stroke-width:59.0551; stroke-opacity:1; 
stroke-linecap:round; stroke-linejoin:round;">
<path d="M3937 43307
L4724 43307
" />
</g>
<g style="fill:#000000; fill-opacity:0.0; 
stroke:#000000; stroke-width:39.3701; stroke-opacity:1; 
stroke-linecap:round; stroke-linejoin:round;">
</g>
<g style="fill:#000000; fill-opacity:0.0; 
stroke:#000000; stroke-width:59.0551; stroke-opacity:1; 
stroke-linecap:round; stroke-linejoin:round;">
<path d="M3937 62992
L4724 62992
" />
</g>
<g style="fill:#000000; fill-opacity:0.0; 
stroke:#000000; stroke-width:39.3701; stroke-opacity:1; 
stroke-linecap:round; stroke-linejoin:round;">
</g>
<g style="fill:#000000; fill-opacity:0.0; 
stroke:#000000; stroke-width:59.0551; stroke-opacity:1; 
stroke-linecap:round; stroke-linejoin:round;">
<text x="4330.71" y="14035.4"
textLength="497.75" font-size="682.415" lengthAdjust="spacingAndGlyphs"
text-anchor="middle" opacity="0">A</text>
<path d="M4208 13864
L4452 13864
" />
<path d="M4160 14011
L4330 13499
L4501 14011
" />
</g>
<g style="fill:#000000; fill-opacity:0.0; 
stroke:#000000; stroke-width:39.3701; stroke-opacity:1; 
stroke-linecap:round; stroke-linejoin:round;">
</g>
<g style="fill:#000000; fill-opacity:0.0; 
stroke:#000000; stroke-width:59.0551; stroke-opacity:1; 
stroke-linecap:round; stroke-linejoin:round;">
<text x="4330.71" y="33720.5"
textLength="570.866" font-size="682.415" lengthAdjust="spacingAndGlyphs"
text-anchor="middle" opacity="0">B</text>
<path d="M4367 33428
L4440 33452
L4464 33476
L4489 33525
L4489 33598
L4464 33647
L4440 33671
L4391 33696
L4196 33696
L4196 33184
L4367 33184
L4416 33208
L4440 33233
L4464 33281
L4464 33330
L4440 33379
L4416 33403
L4367 33428
L4196 33428
" />
</g>
<g style="fill:#000000; fill-opacity:0.0; 
stroke:#000000; stroke-width:39.3701; stroke-opacity:1; 
stroke-linecap:round; stroke-linejoin:round;">
</g>
<g style="fill:#000000; fill-opacity:0.0; 
stroke:#000000; stroke-width:59.0551; stroke-opacity:1; 
stroke-linecap:round; stroke-linejoin:round;">
<text x="4330.71" y="53405.5"
textLength="570.866" font-size="682.415" lengthAdjust="spacingAndGlyphs"
text-anchor="middle" opacity="0">C</text>
<path d="M4489 53332
L4464 53356
L4391 53381
L4342 53381
L4269 53356
L4221 53308
L4196 53259
L4172 53161
L4172 53088
L4196 52991
L4221 52942
L4269 52893
L4342 52869
L4391 52869
L4464 52893
L4489 52918
" />
</g>
<g style="fill:#000000; fill-opacity:0.0; 
stroke:#000000; stroke-width:39.3701; stroke-opacity:1; 
stroke-linecap:round; stroke-linejoin:round;">
</g>
<g style="fill:#000000; fill-opacity:0.0; 
stroke:#000000; stroke-width:59.0551; stroke-opacity:1; 
stroke-linecap:round; stroke-linejoin:round;">
<text x="4330.71" y="73090.6"
textLength="570.866" font-size="682.415" lengthAdjust="spacingAndGlyphs"
text-anchor="middle" opacity="0">D</text>
<path d="M4196 73066
L4196 72554
L4318 72554
L4391 72578
L4440 72627
L4464 72676
L4489 72773
L4489 72846
L4464 72944
L4440 72993
L4391 73041
L4318 73066
L4196 73066
" />
</g>
<g style="fill:#000000; fill-opacity:0.0; 
stroke:#000000; stroke-width:39.3701; stroke-opacity:1; 
stroke-linecap:round; stroke-linejoin:round;">
</g>
<g style="fill:#000000; fill-opacity:0.0; 
stroke:#000000; stroke-width:59.0551; stroke-opacity:1; 
stroke-linecap:round; stroke-linejoin:round;">
<path d="M112992 23622
L112205 23622
" />
</g>
<g style="fill:#000000; fill-opacity:0.0; 
stroke:#000000; stroke-width:39.3701; stroke-opacity:1; 
stroke-linecap:round; stroke-linejoin:round;">
</g>
<g style="fill:#000000; fill-opacity:0.0; 
stroke:#000000; stroke-width:59.0551; stroke-opacity:1; 
stroke-linecap:round; stroke-linejoin:round;">
<path d="M112992 43307
L112205 43307
" />
</g>
<g style="fill:#000000; fill-opacity:0.0; 
stroke:#000000; stroke-width:39.3701; stroke-opacity:1; 
stroke-linecap:round; stroke-linejoin:round;">
</g>
<g style="fill:#000000; fill-opacity:0.0; 
stroke:#000000; stroke-width:59.0551; stroke-opacity:1; 
stroke-linecap:round; stroke-linejoin:round;">
<path d="M112992 62992
L112205 62992
" />
</g>
<g style="fill:#000000; fill-opacity:0.0; 
stroke:#000000; stroke-width:39.3701; stroke-opacity:1; 
stroke-linecap:round; stroke-linejoin:round;">
</g>
<g style="fill:#000000; fill-opacity:0.0; 
stroke:#000000; stroke-width:59.0551; stroke-opacity:1; 
stroke-linecap:round; stroke-linejoin:round;">
<text x="112599" y="14035.4"
textLength="497.75" font-size="682.415" lengthAdjust="spacingAndGlyphs"
text-anchor="middle" opacity="0">A</text>
<path d="M112477 13864
L112721 13864
" />
<path d="M112428 14011
L112599 13499
L112769 14011
" />
</g>
<g style="fill:#000000; fill-opacity:0.0; 
stroke:#000000; stroke-width:39.3701; stroke-opacity:1; 
stroke-linecap:round; stroke-linejoin:round;">
</g>
<g style="fill:#000000; fill-opacity:0.0; 
stroke:#000000; stroke-width:59.0551; stroke-opacity:1; 
stroke-linecap:round; stroke-linejoin:round;">
<text x="112599" y="33720.5"
textLength="570.866" font-size="682.415" lengthAdjust="spacingAndGlyphs"
text-anchor="middle" opacity="0">B</text>
<path d="M112635 33428
L112708 33452
L112733 33476
L112757 33525
L112757 33598
L112733 33647
L112708 33671
L112660 33696
L112465 33696
L112465 33184
L112635 33184
L112684 33208
L112708 33233
L112733 33281
L112733 33330
L112708 33379
L112684 33403
L112635 33428
L112465 33428
" />
</g>
<g style="fill:#000000; fill-opacity:0.0; 
stroke:#000000; stroke-width:39.3701; stroke-opacity:1; 
stroke-linecap:round; stroke-linejoin:round;">
</g>
<g style="fill:#000000; fill-opacity:0.0; 
stroke:#000000; stroke-width:59.0551; stroke-opacity:1; 
stroke-linecap:round; stroke-linejoin:round;">
<text x="112599" y="53405.5"
textLength="570.866" font-size="682.415" lengthAdjust="spacingAndGlyphs"
text-anchor="middle" opacity="0">C</text>
<path d="M112757 53332
L112733 53356
L112660 53381
L112611 53381
L112538 53356
L112489 53308
L112465 53259
L112440 53161
L112440 53088
L112465 52991
L112489 52942
L112538 52893
L112611 52869
L112660 52869
L112733 52893
L112757 52918
" />
</g>
<g style="fill:#000000; fill-opacity:0.0; 
stroke:#000000; stroke-width:39.3701; stroke-opacity:1; 
stroke-linecap:round; stroke-linejoin:round;">
</g>
<g style="fill:#000000; fill-opacity:0.0; 
stroke:#000000; stroke-width:59.0551; stroke-opacity:1; 
stroke-linecap:round; stroke-linejoin:round;">
<text x="112599" y="73090.6"
textLength="570.866" font-size="682.415" lengthAdjust="spacingAndGlyphs"
text-anchor="middle" opacity="0">D</text>
<path d="M112465 73066
L112465 72554
L112587 72554
L112660 72578
L112708 72627
L112733 72676
L112757 72773
L112757 72846
L112733 72944
L112708 72993
L112660 73041
L112587 73066
L112465 73066
" />
</g>
<g style="fill:#000000; fill-opacity:0.0; 
stroke:#000000; stroke-width:39.3701; stroke-opacity:1; 
stroke-linecap:round; stroke-linejoin:round;">
</g>
<g style="fill:#000000; fill-opacity:0.0; 
stroke:#000000; stroke-width:59.0551; stroke-opacity:1; 
stroke-linecap:round; stroke-linejoin:round;">
<text x="78741" y="76321.7"
textLength="2758.72" font-size="787.402" lengthAdjust="spacingAndGlyphs"
text-anchor="start" opacity="0">Date: </text>
<path d="M78911 76293
L78911 75703
L79051 75703
L79136 75731
L79192 75787
L79220 75843
L79248 75956
L79248 76040
L79220 76153
L79192 76209
L79136 76265
L79051 76293
L78911 76293
" />
<path d="M79754 76293
L79754 75984
L79726 75928
L79670 75899
L79557 75899
L79501 75928
" />
<path d="M79754 76265
L79698 76293
L79557 76293
L79501 76265
L79473 76209
L79473 76153
L79501 76096
L79557 76068
L79698 76068
L79754 76040
" />
<path d="M79951 75899
L80176 75899
" />
<path d="M80036 75703
L80036 76209
L80064 76265
L80120 76293
L80176 76293
" />
<path d="M80598 76265
L80542 76293
L80429 76293
L80373 76265
L80345 76209
L80345 75984
L80373 75928
L80429 75899
L80542 75899
L80598 75928
L80626 75984
L80626 76040
L80345 76096
" />
<path d="M80879 76237
L80907 76265
L80879 76293
L80851 76265
L80879 76237
L80879 76293
" />
<path d="M80879 75928
L80907 75956
L80879 75984
L80851 75956
L80879 75928
L80879 75984
" />
</g>
<g style="fill:#000000; fill-opacity:0.0; 
stroke:#000000; stroke-width:39.3701; stroke-opacity:1; 
stroke-linecap:round; stroke-linejoin:round;">
</g>
<g style="fill:#000000; fill-opacity:0.0; 
stroke:#000000; stroke-width:59.0551; stroke-opacity:1; 
stroke-linecap:round; stroke-linejoin:round;">
<path d="M69685 76577
L112205 76577
" />
</g>
<g style="fill:#000000; fill-opacity:0.0; 
stroke:#000000; stroke-width:39.3701; stroke-opacity:1; 
stroke-linecap:round; stroke-linejoin:round;">
</g>
<g style="fill:#000000; fill-opacity:0.0; 
stroke:#000000; stroke-width:59.0551; stroke-opacity:1; 
stroke-linecap:round; stroke-linejoin:round;">
<text x="70079.6" y="77424.1"
textLength="11448.3" font-size="787.402" lengthAdjust="spacingAndGlyphs"
text-anchor="start" opacity="0">KiCad E.D.A.  kicad 5.1.5</text>
<path d="M70249 77395
L70249 76805
" />
<path d="M70587 77395
L70334 77058
" />
<path d="M70587 76805
L70249 77142
" />
<path d="M70840 77395
L70840 77002
" />
<path d="M70840 76805
L70812 76833
L70840 76861
L70868 76833
L70840 76805
L70840 76861
" />
<path d="M71458 77339
L71430 77367
L71346 77395
L71290 77395
L71205 77367
L71149 77311
L71121 77255
L71093 77142
L71093 77058
L71121 76946
L71149 76889
L71205 76833
L71290 76805
L71346 76805
L71430 76833
L71458 76861
" />
<path d="M71965 77395
L71965 77086
L71937 77030
L71880 77002
L71768 77002
L71712 77030
" />
<path d="M71965 77367
L71908 77395
L71768 77395
L71712 77367
L71683 77311
L71683 77255
L71712 77199
L71768 77171
L71908 77171
L71965 77142
" />
<path d="M72499 77395
L72499 76805
" />
<path d="M72499 77367
L72443 77395
L72330 77395
L72274 77367
L72246 77339
L72218 77283
L72218 77114
L72246 77058
L72274 77030
L72330 77002
L72443 77002
L72499 77030
" />
<path d="M73230 77086
L73427 77086
" />
<path d="M73511 77395
L73230 77395
L73230 76805
L73511 76805
" />
<path d="M73764 77339
L73793 77367
L73764 77395
L73736 77367
L73764 77339
L73764 77395
" />
<path d="M74046 77395
L74046 76805
L74186 76805
L74271 76833
L74327 76889
L74355 76946
L74383 77058
L74383 77142
L74355 77255
L74327 77311
L74271 77367
L74186 77395
L74046 77395
" />
<path d="M74636 77339
L74664 77367
L74636 77395
L74608 77367
L74636 77339
L74636 77395
" />
<path d="M74889 77227
L75171 77227
" />
<path d="M74833 77395
L75030 76805
L75227 77395
" />
<path d="M75424 77339
L75452 77367
L75424 77395
L75395 77367
L75424 77339
L75424 77395
" />
<path d="M76605 77395
L76605 76805
" />
<path d="M76661 77171
L76830 77395
" />
<path d="M76830 77002
L76605 77227
" />
<path d="M77083 77395
L77083 77002
" />
<path d="M77083 76805
L77055 76833
L77083 76861
L77111 76833
L77083 76805
L77083 76861
" />
<path d="M77617 77367
L77561 77395
L77448 77395
L77392 77367
L77364 77339
L77336 77283
L77336 77114
L77364 77058
L77392 77030
L77448 77002
L77561 77002
L77617 77030
" />
<path d="M78123 77395
L78123 77086
L78095 77030
L78039 77002
L77926 77002
L77870 77030
" />
<path d="M78123 77367
L78067 77395
L77926 77395
L77870 77367
L77842 77311
L77842 77255
L77870 77199
L77926 77171
L78067 77171
L78123 77142
" />
<path d="M78658 77395
L78658 76805
" />
<path d="M78658 77367
L78601 77395
L78489 77395
L78433 77367
L78404 77339
L78376 77283
L78376 77114
L78404 77058
L78433 77030
L78489 77002
L78601 77002
L78658 77030
" />
<path d="M79670 76805
L79389 76805
L79361 77086
L79389 77058
L79445 77030
L79586 77030
L79642 77058
L79670 77086
L79698 77142
L79698 77283
L79670 77339
L79642 77367
L79586 77395
L79445 77395
L79389 77367
L79361 77339
" />
<path d="M79951 77339
L79979 77367
L79951 77395
L79923 77367
L79951 77339
L79951 77395
" />
<path d="M80542 77395
L80204 77395
" />
<path d="M80373 77395
L80373 76805
L80317 76889
L80260 76946
L80204 76974
" />
<path d="M80795 77339
L80823 77367
L80795 77395
L80767 77367
L80795 77339
L80795 77395
" />
<path d="M81357 76805
L81076 76805
L81048 77086
L81076 77058
L81132 77030
L81273 77030
L81329 77058
L81357 77086
L81385 77142
L81385 77283
L81357 77339
L81329 77367
L81273 77395
L81132 77395
L81076 77367
L81048 77339
" />
</g>
<g style="fill:#000000; fill-opacity:0.0; 
stroke:#000000; stroke-width:39.3701; stroke-opacity:1; 
stroke-linecap:round; stroke-linejoin:round;">
</g>
<g style="fill:#000000; fill-opacity:0.0; 
stroke:#000000; stroke-width:59.0551; stroke-opacity:1; 
stroke-linecap:round; stroke-linejoin:round;">
<path d="M69685 75396
L112205 75396
" />
</g>
<g style="fill:#000000; fill-opacity:0.0; 
stroke:#000000; stroke-width:39.3701; stroke-opacity:1; 
stroke-linecap:round; stroke-linejoin:round;">
</g>
<g style="fill:#000000; fill-opacity:0.0; 
stroke:#000000; stroke-width:118.11; stroke-opacity:1; 
stroke-linecap:round; stroke-linejoin:round;">
<text x="103544" y="76321.7"
textLength="2336.9" font-size="787.402" lengthAdjust="spacingAndGlyphs"
text-anchor="start" opacity="0">Rev: </text>
<path d="M104099 76293
L103902 76012
" />
<path d="M103761 76293
L103761 75703
L103986 75703
L104042 75731
L104070 75759
L104099 75815
L104099 75899
L104070 75956
L104042 75984
L103986 76012
L103761 76012
" />
<path d="M104577 76265
L104520 76293
L104408 76293
L104352 76265
L104323 76209
L104323 75984
L104352 75928
L104408 75899
L104520 75899
L104577 75928
L104605 75984
L104605 76040
L104323 76096
" />
<path d="M104802 75899
L104942 76293
L105083 75899
" />
<path d="M105308 76237
L105336 76265
L105308 76293
L105280 76265
L105308 76237
L105308 76293
" />
<path d="M105308 75928
L105336 75956
L105308 75984
L105280 75956
L105308 75928
L105308 75984
" />
</g>
<g style="fill:#000000; fill-opacity:0.0; 
stroke:#000000; stroke-width:39.3701; stroke-opacity:1; 
stroke-linecap:round; stroke-linejoin:round;">
</g>
<g style="fill:#000000; fill-opacity:0.0; 
stroke:#000000; stroke-width:59.0551; stroke-opacity:1; 
stroke-linecap:round; stroke-linejoin:round;">
<text x="70079.6" y="76321.7"
textLength="3781.21" font-size="787.402" lengthAdjust="spacingAndGlyphs"
text-anchor="start" opacity="0">Size: A4</text>
<path d="M70221 76265
L70305 76293
L70446 76293
L70502 76265
L70530 76237
L70559 76181
L70559 76124
L70530 76068
L70502 76040
L70446 76012
L70334 75984
L70277 75956
L70249 75928
L70221 75871
L70221 75815
L70249 75759
L70277 75731
L70334 75703
L70474 75703
L70559 75731
" />
<path d="M70812 76293
L70812 75899
" />
<path d="M70812 75703
L70784 75731
L70812 75759
L70840 75731
L70812 75703
L70812 75759
" />
<path d="M71037 75899
L71346 75899
L71037 76293
L71346 76293
" />
<path d="M71796 76265
L71740 76293
L71627 76293
L71571 76265
L71543 76209
L71543 75984
L71571 75928
L71627 75899
L71740 75899
L71796 75928
L71824 75984
L71824 76040
L71543 76096
" />
<path d="M72077 76237
L72105 76265
L72077 76293
L72049 76265
L72077 76237
L72077 76293
" />
<path d="M72077 75928
L72105 75956
L72077 75984
L72049 75956
L72077 75928
L72077 75984
" />
<path d="M72780 76124
L73061 76124
" />
<path d="M72724 76293
L72921 75703
L73118 76293
" />
<path d="M73568 75899
L73568 76293
" />
<path d="M73427 75674
L73286 76096
L73652 76096
" />
</g>
<g style="fill:#000000; fill-opacity:0.0; 
stroke:#000000; stroke-width:39.3701; stroke-opacity:1; 
stroke-linecap:round; stroke-linejoin:round;">
</g>
<g style="fill:#000000; fill-opacity:0.0; 
stroke:#000000; stroke-width:59.0551; stroke-opacity:1; 
stroke-linecap:round; stroke-linejoin:round;">
<text x="103544" y="77424.1"
textLength="3349.27" font-size="787.402" lengthAdjust="spacingAndGlyphs"
text-anchor="start" opacity="0">Id: 1/1</text>
<path d="M103714 77395
L103714 76805
" />
<path d="M104248 77395
L104248 76805
" />
<path d="M104248 77367
L104192 77395
L104079 77395
L104023 77367
L103995 77339
L103967 77283
L103967 77114
L103995 77058
L104023 77030
L104079 77002
L104192 77002
L104248 77030
" />
<path d="M104529 77339
L104557 77367
L104529 77395
L104501 77367
L104529 77339
L104529 77395
" />
<path d="M104529 77030
L104557 77058
L104529 77086
L104501 77058
L104529 77030
L104529 77086
" />
<path d="M105570 77395
L105232 77395
" />
<path d="M105401 77395
L105401 76805
L105345 76889
L105289 76946
L105232 76974
" />
<path d="M106245 76777
L105739 77536
" />
<path d="M106751 77395
L106413 77395
" />
<path d="M106582 77395
L106582 76805
L106526 76889
L106470 76946
L106413 76974
" />
</g>
<g style="fill:#000000; fill-opacity:0.0; 
stroke:#000000; stroke-width:39.3701; stroke-opacity:1; 
stroke-linecap:round; stroke-linejoin:round;">
</g>
<g style="fill:#000000; fill-opacity:0.0; 
stroke:#000000; stroke-width:59.0551; stroke-opacity:1; 
stroke-linecap:round; stroke-linejoin:round;">
<path d="M69685 73821
L112205 73821
" />
</g>
<g style="fill:#000000; fill-opacity:0.0; 
stroke:#000000; stroke-width:39.3701; stroke-opacity:1; 
stroke-linecap:round; stroke-linejoin:round;">
</g>
<g style="fill:#000000; fill-opacity:0.0; 
stroke:#000000; stroke-width:157.48; stroke-opacity:1; 
stroke-linecap:round; stroke-linejoin:round;">
<text x="70079.6" y="74924.1"
textLength="3701.14" font-size="1049.87" lengthAdjust="spacingAndGlyphs"
text-anchor="start" opacity="0">Title: </text>
<path d="M70360 74099
L70810 74099
" />
<path d="M70486 74886
L70585 74099
" />
<path d="M70974 74886
L71039 74361
" />
<path d="M71072 74099
L71030 74136
L71063 74174
L71105 74136
L71072 74099
L71063 74174
" />
<path d="M71302 74361
L71602 74361
" />
<path d="M71447 74099
L71363 74774
L71391 74849
L71461 74886
L71536 74886
" />
<path d="M71911 74886
L71841 74849
L71813 74774
L71897 74099
" />
<path d="M72516 74849
L72436 74886
L72286 74886
L72216 74849
L72187 74774
L72225 74474
L72272 74399
L72352 74361
L72501 74361
L72572 74399
L72600 74474
L72591 74549
L72206 74624
" />
<path d="M72895 74811
L72928 74849
L72886 74886
L72853 74849
L72895 74811
L72886 74886
" />
<path d="M72947 74399
L72980 74436
L72937 74474
L72905 74436
L72947 74399
L72937 74474
" />
</g>
<g style="fill:#000000; fill-opacity:0.0; 
stroke:#000000; stroke-width:39.3701; stroke-opacity:1; 
stroke-linecap:round; stroke-linejoin:round;">
</g>
<g style="fill:#000000; fill-opacity:0.0; 
stroke:#000000; stroke-width:59.0551; stroke-opacity:1; 
stroke-linecap:round; stroke-linejoin:round;">
<text x="70079.6" y="73408.3"
textLength="10806.5" font-size="787.402" lengthAdjust="spacingAndGlyphs"
text-anchor="start" opacity="0">File: smart48.kicad_pcb</text>
<path d="M70446 73070
L70249 73070
" />
<path d="M70249 73380
L70249 72789
L70530 72789
" />
<path d="M70755 73380
L70755 72986
" />
<path d="M70755 72789
L70727 72817
L70755 72845
L70784 72817
L70755 72789
L70755 72845
" />
<path d="M71121 73380
L71065 73352
L71037 73295
L71037 72789
" />
<path d="M71571 73352
L71515 73380
L71402 73380
L71346 73352
L71318 73295
L71318 73070
L71346 73014
L71402 72986
L71515 72986
L71571 73014
L71599 73070
L71599 73127
L71318 73183
" />
<path d="M71852 73323
L71880 73352
L71852 73380
L71824 73352
L71852 73323
L71852 73380
" />
<path d="M71852 73014
L71880 73042
L71852 73070
L71824 73042
L71852 73014
L71852 73070
" />
<path d="M72555 73352
L72611 73380
L72724 73380
L72780 73352
L72808 73295
L72808 73267
L72780 73211
L72724 73183
L72640 73183
L72583 73155
L72555 73099
L72555 73070
L72583 73014
L72640 72986
L72724 72986
L72780 73014
" />
<path d="M73061 73380
L73061 72986
" />
<path d="M73061 73042
L73090 73014
L73146 72986
L73230 72986
L73286 73014
L73314 73070
L73314 73380
" />
<path d="M73314 73070
L73343 73014
L73399 72986
L73483 72986
L73539 73014
L73568 73070
L73568 73380
" />
<path d="M74102 73380
L74102 73070
L74074 73014
L74018 72986
L73905 72986
L73849 73014
" />
<path d="M74102 73352
L74046 73380
L73905 73380
L73849 73352
L73821 73295
L73821 73239
L73849 73183
L73905 73155
L74046 73155
L74102 73127
" />
<path d="M74383 73380
L74383 72986
" />
<path d="M74383 73099
L74411 73042
L74439 73014
L74496 72986
L74552 72986
" />
<path d="M74664 72986
L74889 72986
" />
<path d="M74749 72789
L74749 73295
L74777 73352
L74833 73380
L74889 73380
" />
<path d="M75339 72986
L75339 73380
" />
<path d="M75199 72761
L75058 73183
L75424 73183
" />
<path d="M75733 73042
L75677 73014
L75649 72986
L75620 72930
L75620 72902
L75649 72845
L75677 72817
L75733 72789
L75845 72789
L75902 72817
L75930 72845
L75958 72902
L75958 72930
L75930 72986
L75902 73014
L75845 73042
L75733 73042
L75677 73070
L75649 73099
L75620 73155
L75620 73267
L75649 73323
L75677 73352
L75733 73380
L75845 73380
L75902 73352
L75930 73323
L75958 73267
L75958 73155
L75930 73099
L75902 73070
L75845 73042
" />
<path d="M76211 73323
L76239 73352
L76211 73380
L76183 73352
L76211 73323
L76211 73380
" />
<path d="M76492 73380
L76492 72789
" />
<path d="M76548 73155
L76717 73380
" />
<path d="M76717 72986
L76492 73211
" />
<path d="M76970 73380
L76970 72986
" />
<path d="M76970 72789
L76942 72817
L76970 72845
L76998 72817
L76970 72789
L76970 72845
" />
<path d="M77505 73352
L77448 73380
L77336 73380
L77280 73352
L77251 73323
L77223 73267
L77223 73099
L77251 73042
L77280 73014
L77336 72986
L77448 72986
L77505 73014
" />
<path d="M78011 73380
L78011 73070
L77983 73014
L77926 72986
L77814 72986
L77758 73014
" />
<path d="M78011 73352
L77955 73380
L77814 73380
L77758 73352
L77730 73295
L77730 73239
L77758 73183
L77814 73155
L77955 73155
L78011 73127
" />
<path d="M78545 73380
L78545 72789
" />
<path d="M78545 73352
L78489 73380
L78376 73380
L78320 73352
L78292 73323
L78264 73267
L78264 73099
L78292 73042
L78320 73014
L78376 72986
L78489 72986
L78545 73014
" />
<path d="M78686 73436
L79136 73436
" />
<path d="M79276 72986
L79276 73577
" />
<path d="M79276 73014
L79332 72986
L79445 72986
L79501 73014
L79529 73042
L79557 73099
L79557 73267
L79529 73323
L79501 73352
L79445 73380
L79332 73380
L79276 73352
" />
<path d="M80064 73352
L80007 73380
L79895 73380
L79839 73352
L79811 73323
L79782 73267
L79782 73099
L79811 73042
L79839 73014
L79895 72986
L80007 72986
L80064 73014
" />
<path d="M80317 73380
L80317 72789
" />
<path d="M80317 73014
L80373 72986
L80485 72986
L80542 73014
L80570 73042
L80598 73099
L80598 73267
L80570 73323
L80542 73352
L80485 73380
L80373 73380
L80317 73352
" />
</g>
<g style="fill:#000000; fill-opacity:0.0; 
stroke:#000000; stroke-width:39.3701; stroke-opacity:1; 
stroke-linecap:round; stroke-linejoin:round;">
</g>
<g style="fill:#000000; fill-opacity:0.0; 
stroke:#000000; stroke-width:59.0551; stroke-opacity:1; 
stroke-linecap:round; stroke-linejoin:round;">
<text x="70079.6" y="72345.4"
textLength="3236.78" font-size="787.402" lengthAdjust="spacingAndGlyphs"
text-anchor="start" opacity="0">Sheet: </text>
<path d="M70221 72289
L70305 72317
L70446 72317
L70502 72289
L70530 72260
L70559 72204
L70559 72148
L70530 72092
L70502 72064
L70446 72036
L70334 72007
L70277 71979
L70249 71951
L70221 71895
L70221 71839
L70249 71782
L70277 71754
L70334 71726
L70474 71726
L70559 71754
" />
<path d="M70812 72317
L70812 71726
" />
<path d="M71065 72317
L71065 72007
L71037 71951
L70980 71923
L70896 71923
L70840 71951
L70812 71979
" />
<path d="M71571 72289
L71515 72317
L71402 72317
L71346 72289
L71318 72232
L71318 72007
L71346 71951
L71402 71923
L71515 71923
L71571 71951
L71599 72007
L71599 72064
L71318 72120
" />
<path d="M72077 72289
L72021 72317
L71908 72317
L71852 72289
L71824 72232
L71824 72007
L71852 71951
L71908 71923
L72021 71923
L72077 71951
L72105 72007
L72105 72064
L71824 72120
" />
<path d="M72274 71923
L72499 71923
" />
<path d="M72358 71726
L72358 72232
L72386 72289
L72443 72317
L72499 72317
" />
<path d="M72696 72260
L72724 72289
L72696 72317
L72668 72289
L72696 72260
L72696 72317
" />
<path d="M72696 71951
L72724 71979
L72696 72007
L72668 71979
L72696 71951
L72696 72007
" />
</g>
<g style="fill:#000000; fill-opacity:0.0; 
stroke:#000000; stroke-width:39.3701; stroke-opacity:1; 
stroke-linecap:round; stroke-linejoin:round;">
</g>
<g style="fill:#000000; fill-opacity:0.0; 
stroke:#000000; stroke-width:59.0551; stroke-opacity:1; 
stroke-linecap:round; stroke-linejoin:round;">
<path d="M77559 75396
L77559 76577
" />
</g>
<g style="fill:#000000; fill-opacity:0.0; 
stroke:#000000; stroke-width:39.3701; stroke-opacity:1; 
stroke-linecap:round; stroke-linejoin:round;">
</g>
<g style="fill:#000000; fill-opacity:0.0; 
stroke:#000000; stroke-width:59.0551; stroke-opacity:1; 
stroke-linecap:round; stroke-linejoin:round;">
<path d="M102756 75396
L102756 77955
" />
</g>
<g style="fill:#000000; fill-opacity:1.0; 
stroke:#000000; stroke-width:0; stroke-opacity:1; 
stroke-linecap:round; stroke-linejoin:round;">
<path style="fill:#000000; fill-opacity:1.0; 
stroke:#000000; stroke-width:0; stroke-opacity:1; 
stroke-linecap:round; stroke-linejoin:round;fill-rule:evenodd;"
d="M 63859.2,36140
63927.3,36168.2
63927.3,36168.2
63988.7,36209.2
64040.8,36261.3
64040.8,36261.3
64081.8,36322.7
64110,36390.8
64124.4,36463.1
64124.4,36536.9
64110,36609.2
64081.8,36677.3
64081.8,36677.3
64040.8,36738.7
63988.7,36790.8
63957.8,36811.4
63927.3,36831.8
63859.2,36860
63786.9,36874.4
63713.1,36874.4
63640.8,36860
63572.7,36831.8
63542.2,36811.4
63511.3,36790.8
63459.2,36738.7
63418.2,36677.3
63418.2,36677.3
63390,36609.2
63375.6,36536.9
63375.6,36463.1
63390,36390.8
63418.2,36322.7
63459.2,36261.3
63459.2,36261.3
63511.3,36209.2
63572.7,36168.2
63572.7,36168.2
63640.8,36140
63713.1,36125.6
63786.9,36125.6
Z" /> 
<path style="fill:#000000; fill-opacity:1.0; 
stroke:#000000; stroke-width:0; stroke-opacity:1; 
stroke-linecap:round; stroke-linejoin:round;fill-rule:evenodd;"
d="M 63859.2,35140
63927.3,35168.2
63927.3,35168.2
63988.7,35209.2
64040.8,35261.3
64040.8,35261.3
64081.8,35322.7
64110,35390.8
64124.4,35463.1
64124.4,35536.9
64110,35609.2
64081.8,35677.3
64081.8,35677.3
64040.8,35738.7
63988.7,35790.8
63957.8,35811.4
63927.3,35831.8
63859.2,35860
63786.9,35874.4
63713.1,35874.4
63640.8,35860
63572.7,35831.8
63542.2,35811.4
63511.3,35790.8
63459.2,35738.7
63418.2,35677.3
63418.2,35677.3
63390,35609.2
63375.6,35536.9
63375.6,35463.1
63390,35390.8
63418.2,35322.7
63459.2,35261.3
63459.2,35261.3
63511.3,35209.2
63572.7,35168.2
63572.7,35168.2
63640.8,35140
63713.1,35125.6
63786.9,35125.6
Z" /> 
<path style="fill:#000000; fill-opacity:1.0; 
stroke:#000000; stroke-width:0; stroke-opacity:1; 
stroke-linecap:round; stroke-linejoin:round;fill-rule:evenodd;"
d="M 52273.5,34998.9
52303.9,35008.2
52332,35023.2
52356.6,35043.4
52376.8,35068
52391.8,35096.1
52401.1,35126.5
52404.4,35160.6
52404.4,35579.4
52401.1,35613.5
52391.8,35643.9
52376.8,35672
52356.6,35696.6
52332,35716.8
52303.9,35731.8
52273.5,35741.1
52239.4,35744.4
51820.6,35744.4
51786.5,35741.1
51756.1,35731.8
51728,35716.8
51703.4,35696.6
51683.2,35672
51668.2,35643.9
51658.9,35613.5
51655.6,35579.4
51655.6,35160.6
51658.9,35126.5
51668.2,35096.1
51683.2,35068
51703.4,35043.4
51728,35023.2
51756.1,35008.2
51786.5,34998.9
51820.6,34995.6
52239.4,34995.6
Z" /> 
<path style="fill:#000000; fill-opacity:1.0; 
stroke:#000000; stroke-width:0; stroke-opacity:1; 
stroke-linecap:round; stroke-linejoin:round;fill-rule:evenodd;"
d="M 54139.2,35010
54207.3,35038.2
54207.3,35038.2
54268.7,35079.2
54320.8,35131.3
54320.8,35131.3
54361.8,35192.7
54390,35260.8
54404.4,35333.1
54404.4,35406.9
54390,35479.2
54361.8,35547.3
54361.8,35547.3
54320.8,35608.7
54268.7,35660.8
54268.1,35661.2
54207.3,35701.8
54139.2,35730
54066.9,35744.4
53993.1,35744.4
53920.8,35730
53852.7,35701.8
53791.9,35661.2
53791.3,35660.8
53739.2,35608.7
53698.2,35547.3
53698.2,35547.3
53670,35479.2
53655.6,35406.9
53655.6,35333.1
53670,35260.8
53698.2,35192.7
53739.2,35131.3
53739.2,35131.3
53791.3,35079.2
53852.7,35038.2
53852.7,35038.2
53920.8,35010
53993.1,34995.6
54066.9,34995.6
Z" /> 
<path style="fill:#000000; fill-opacity:1.0; 
stroke:#000000; stroke-width:0; stroke-opacity:1; 
stroke-linecap:round; stroke-linejoin:round;fill-rule:evenodd;"
d="M 53139.2,35010
53207.3,35038.2
53207.3,35038.2
53268.7,35079.2
53320.8,35131.3
53320.8,35131.3
53361.8,35192.7
53390,35260.8
53404.4,35333.1
53404.4,35406.9
53390,35479.2
53361.8,35547.3
53361.8,35547.3
53320.8,35608.7
53268.7,35660.8
53268.1,35661.2
53207.3,35701.8
53139.2,35730
53066.9,35744.4
52993.1,35744.4
52920.8,35730
52852.7,35701.8
52791.9,35661.2
52791.3,35660.8
52739.2,35608.7
52698.2,35547.3
52698.2,35547.3
52670,35479.2
52655.6,35406.9
52655.6,35333.1
52670,35260.8
52698.2,35192.7
52739.2,35131.3
52739.2,35131.3
52791.3,35079.2
52852.7,35038.2
52852.7,35038.2
52920.8,35010
52993.1,34995.6
53066.9,34995.6
Z" /> 
<path style="fill:#000000; fill-opacity:1.0; 
stroke:#000000; stroke-width:0; stroke-opacity:1; 
stroke-linecap:round; stroke-linejoin:round;fill-rule:evenodd;"
d="M 49953.3,34410.9
50021.5,34439.1
50021.5,34439.1
50082.8,34480.1
50134.9,34532.2
50140.7,34540.8
50175.9,34593.6
50204.1,34661.7
50218.5,34734
50218.5,34807.8
50204.1,34880.1
50175.9,34948.3
50175.9,34948.3
50134.9,35009.6
50082.8,35061.7
50073.4,35068
50021.5,35102.7
49953.3,35130.9
49881,35145.3
49807.2,35145.3
49734.9,35130.9
49666.8,35102.7
49614.8,35068
49605.4,35061.7
49553.3,35009.6
49512.3,34948.3
49512.3,34948.3
49484.1,34880.1
49469.7,34807.8
49469.7,34734
49484.1,34661.7
49512.3,34593.6
49547.5,34540.8
49553.3,34532.2
49605.4,34480.1
49666.8,34439.1
49666.8,34439.1
49734.9,34410.9
49807.2,34396.5
49881,34396.5
Z" /> 
<path style="fill:#000000; fill-opacity:1.0; 
stroke:#000000; stroke-width:0; stroke-opacity:1; 
stroke-linecap:round; stroke-linejoin:round;fill-rule:evenodd;"
d="M 48969.1,34410.9
49037.2,34439.1
49037.2,34439.1
49098.5,34480.1
49150.7,34532.2
49156.4,34540.8
49191.6,34593.6
49219.9,34661.7
49234.3,34734
49234.3,34807.8
49219.9,34880.1
49191.6,34948.3
49191.6,34948.3
49150.7,35009.6
49098.5,35061.7
49089.2,35068
49037.2,35102.7
48969.1,35130.9
48896.7,35145.3
48823,35145.3
48750.6,35130.9
48682.5,35102.7
48630.5,35068
48621.2,35061.7
48569,35009.6
48528.1,34948.3
48528.1,34948.3
48499.8,34880.1
48485.4,34807.8
48485.4,34734
48499.8,34661.7
48528.1,34593.6
48563.3,34540.8
48569,34532.2
48621.2,34480.1
48682.5,34439.1
48682.5,34439.1
48750.6,34410.9
48823,34396.5
48896.7,34396.5
Z" /> 
<path style="fill:#000000; fill-opacity:1.0; 
stroke:#000000; stroke-width:0; stroke-opacity:1; 
stroke-linecap:round; stroke-linejoin:round;fill-rule:evenodd;"
d="M 62609.2,34140
62677.3,34168.2
62707.8,34188.6
62738.7,34209.2
62790.8,34261.3
62790.8,34261.3
62831.8,34322.7
62860,34390.8
62874.4,34463.1
62874.4,34536.9
62860,34609.2
62831.8,34677.3
62831.8,34677.3
62790.8,34738.7
62738.7,34790.8
62713.3,34807.8
62677.3,34831.8
62609.2,34860
62536.9,34874.4
62463.1,34874.4
62390.8,34860
62322.7,34831.8
62286.7,34807.8
62261.3,34790.8
62209.2,34738.7
62168.2,34677.3
62168.2,34677.3
62140,34609.2
62125.6,34536.9
62125.6,34463.1
62140,34390.8
62168.2,34322.7
62209.2,34261.3
62209.2,34261.3
62261.3,34209.2
62292.2,34188.6
62322.7,34168.2
62390.8,34140
62463.1,34125.6
62536.9,34125.6
Z" /> 
<path style="fill:#000000; fill-opacity:1.0; 
stroke:#000000; stroke-width:0; stroke-opacity:1; 
stroke-linecap:round; stroke-linejoin:round;fill-rule:evenodd;"
d="M 61609.2,34140
61677.3,34168.2
61707.8,34188.6
61738.7,34209.2
61790.8,34261.3
61790.8,34261.3
61831.8,34322.7
61860,34390.8
61874.4,34463.1
61874.4,34536.9
61860,34609.2
61831.8,34677.3
61831.8,34677.3
61790.8,34738.7
61738.7,34790.8
61713.3,34807.8
61677.3,34831.8
61609.2,34860
61536.9,34874.4
61463.1,34874.4
61390.8,34860
61322.7,34831.8
61286.7,34807.8
61261.3,34790.8
61209.2,34738.7
61168.2,34677.3
61168.2,34677.3
61140,34609.2
61125.6,34536.9
61125.6,34463.1
61140,34390.8
61168.2,34322.7
61209.2,34261.3
61209.2,34261.3
61261.3,34209.2
61292.2,34188.6
61322.7,34168.2
61390.8,34140
61463.1,34125.6
61536.9,34125.6
Z" /> 
<path style="fill:#000000; fill-opacity:1.0; 
stroke:#000000; stroke-width:0; stroke-opacity:1; 
stroke-linecap:round; stroke-linejoin:round;fill-rule:evenodd;"
d="M 63859.2,33890
63927.3,33918.2
63927.3,33918.2
63988.7,33959.2
64040.8,34011.3
64040.8,34011.3
64081.8,34072.7
64110,34140.8
64124.4,34213.1
64124.4,34286.9
64110,34359.2
64081.8,34427.3
64081.8,34427.3
64040.8,34488.7
63988.7,34540.8
63957.8,34561.4
63927.3,34581.8
63859.2,34610
63786.9,34624.4
63713.1,34624.4
63640.8,34610
63572.7,34581.8
63542.2,34561.4
63511.3,34540.8
63459.2,34488.7
63418.2,34427.3
63418.2,34427.3
63390,34359.2
63375.6,34286.9
63375.6,34213.1
63390,34140.8
63418.2,34072.7
63459.2,34011.3
63459.2,34011.3
63511.3,33959.2
63572.7,33918.2
63572.7,33918.2
63640.8,33890
63713.1,33875.6
63786.9,33875.6
Z" /> 
<path style="fill:#000000; fill-opacity:1.0; 
stroke:#000000; stroke-width:0; stroke-opacity:1; 
stroke-linecap:round; stroke-linejoin:round;fill-rule:evenodd;"
d="M 65359.2,33890
65427.3,33918.2
65427.3,33918.2
65488.7,33959.2
65540.8,34011.3
65540.8,34011.3
65581.8,34072.7
65610,34140.8
65624.4,34213.1
65624.4,34286.9
65610,34359.2
65581.8,34427.3
65581.8,34427.3
65540.8,34488.7
65488.7,34540.8
65457.8,34561.4
65427.3,34581.8
65359.2,34610
65286.9,34624.4
65213.1,34624.4
65140.8,34610
65072.7,34581.8
65042.2,34561.4
65011.3,34540.8
64959.2,34488.7
64918.2,34427.3
64918.2,34427.3
64890,34359.2
64875.6,34286.9
64875.6,34213.1
64890,34140.8
64918.2,34072.7
64959.2,34011.3
64959.2,34011.3
65011.3,33959.2
65072.7,33918.2
65072.7,33918.2
65140.8,33890
65213.1,33875.6
65286.9,33875.6
Z" /> 
<path style="fill:#000000; fill-opacity:1.0; 
stroke:#000000; stroke-width:0; stroke-opacity:1; 
stroke-linecap:round; stroke-linejoin:round;fill-rule:evenodd;"
d="M 58109.2,33640
58177.3,33668.2
58177.3,33668.2
58238.7,33709.2
58290.8,33761.3
58290.8,33761.3
58331.8,33822.7
58360,33890.8
58374.4,33963.1
58374.4,34036.9
58360,34109.2
58331.8,34177.3
58331.8,34177.3
58290.8,34238.7
58238.7,34290.8
58207.8,34311.4
58177.3,34331.8
58109.2,34360
58036.9,34374.4
57963.1,34374.4
57890.8,34360
57822.7,34331.8
57792.2,34311.4
57761.3,34290.8
57709.2,34238.7
57668.2,34177.3
57668.2,34177.3
57640,34109.2
57625.6,34036.9
57625.6,33963.1
57640,33890.8
57668.2,33822.7
57709.2,33761.3
57709.2,33761.3
57761.3,33709.2
57822.7,33668.2
57822.7,33668.2
57890.8,33640
57963.1,33625.6
58036.9,33625.6
Z" /> 
<path style="fill:#000000; fill-opacity:1.0; 
stroke:#000000; stroke-width:0; stroke-opacity:1; 
stroke-linecap:round; stroke-linejoin:round;fill-rule:evenodd;"
d="M 59109.2,33640
59177.3,33668.2
59177.3,33668.2
59238.7,33709.2
59290.8,33761.3
59290.8,33761.3
59331.8,33822.7
59360,33890.8
59374.4,33963.1
59374.4,34036.9
59360,34109.2
59331.8,34177.3
59331.8,34177.3
59290.8,34238.7
59238.7,34290.8
59207.8,34311.4
59177.3,34331.8
59109.2,34360
59036.9,34374.4
58963.1,34374.4
58890.8,34360
58822.7,34331.8
58792.2,34311.4
58761.3,34290.8
58709.2,34238.7
58668.2,34177.3
58668.2,34177.3
58640,34109.2
58625.6,34036.9
58625.6,33963.1
58640,33890.8
58668.2,33822.7
58709.2,33761.3
58709.2,33761.3
58761.3,33709.2
58822.7,33668.2
58822.7,33668.2
58890.8,33640
58963.1,33625.6
59036.9,33625.6
Z" /> 
<path style="fill:#000000; fill-opacity:1.0; 
stroke:#000000; stroke-width:0; stroke-opacity:1; 
stroke-linecap:round; stroke-linejoin:round;fill-rule:evenodd;"
d="M 60109.2,33640
60177.3,33668.2
60177.3,33668.2
60238.7,33709.2
60290.8,33761.3
60290.8,33761.3
60331.8,33822.7
60360,33890.8
60374.4,33963.1
60374.4,34036.9
60360,34109.2
60331.8,34177.3
60331.8,34177.3
60290.8,34238.7
60238.7,34290.8
60207.8,34311.4
60177.3,34331.8
60109.2,34360
60036.9,34374.4
59963.1,34374.4
59890.8,34360
59822.7,34331.8
59792.2,34311.4
59761.3,34290.8
59709.2,34238.7
59668.2,34177.3
59668.2,34177.3
59640,34109.2
59625.6,34036.9
59625.6,33963.1
59640,33890.8
59668.2,33822.7
59709.2,33761.3
59709.2,33761.3
59761.3,33709.2
59822.7,33668.2
59822.7,33668.2
59890.8,33640
59963.1,33625.6
60036.9,33625.6
Z" /> 
<path style="fill:#000000; fill-opacity:1.0; 
stroke:#000000; stroke-width:0; stroke-opacity:1; 
stroke-linecap:round; stroke-linejoin:round;fill-rule:evenodd;"
d="M 61609.2,32890
61677.3,32918.2
61677.3,32918.2
61738.7,32959.2
61790.8,33011.3
61790.8,33011.3
61831.8,33072.7
61860,33140.8
61874.4,33213.1
61874.4,33286.9
61860,33359.2
61831.8,33427.3
61831.8,33427.3
61790.8,33488.7
61738.7,33540.8
61707.8,33561.4
61677.3,33581.8
61609.2,33610
61536.9,33624.4
61463.1,33624.4
61390.8,33610
61322.7,33581.8
61292.2,33561.4
61261.3,33540.8
61209.2,33488.7
61168.2,33427.3
61168.2,33427.3
61140,33359.2
61125.6,33286.9
61125.6,33213.1
61140,33140.8
61168.2,33072.7
61209.2,33011.3
61209.2,33011.3
61261.3,32959.2
61322.7,32918.2
61322.7,32918.2
61390.8,32890
61463.1,32875.6
61536.9,32875.6
Z" /> 
<path style="fill:#000000; fill-opacity:1.0; 
stroke:#000000; stroke-width:0; stroke-opacity:1; 
stroke-linecap:round; stroke-linejoin:round;fill-rule:evenodd;"
d="M 62609.2,32890
62677.3,32918.2
62677.3,32918.2
62738.7,32959.2
62790.8,33011.3
62790.8,33011.3
62831.8,33072.7
62860,33140.8
62874.4,33213.1
62874.4,33286.9
62860,33359.2
62831.8,33427.3
62831.8,33427.3
62790.8,33488.7
62738.7,33540.8
62707.8,33561.4
62677.3,33581.8
62609.2,33610
62536.9,33624.4
62463.1,33624.4
62390.8,33610
62322.7,33581.8
62292.2,33561.4
62261.3,33540.8
62209.2,33488.7
62168.2,33427.3
62168.2,33427.3
62140,33359.2
62125.6,33286.9
62125.6,33213.1
62140,33140.8
62168.2,33072.7
62209.2,33011.3
62209.2,33011.3
62261.3,32959.2
62322.7,32918.2
62322.7,32918.2
62390.8,32890
62463.1,32875.6
62536.9,32875.6
Z" /> 
<path style="fill:#000000; fill-opacity:1.0; 
stroke:#000000; stroke-width:0; stroke-opacity:1; 
stroke-linecap:round; stroke-linejoin:round;fill-rule:evenodd;"
d="M 65359.2,32890
65427.3,32918.2
65427.3,32918.2
65488.7,32959.2
65540.8,33011.3
65540.8,33011.3
65581.8,33072.7
65610,33140.8
65624.4,33213.1
65624.4,33286.9
65610,33359.2
65581.8,33427.3
65581.8,33427.3
65540.8,33488.7
65488.7,33540.8
65457.8,33561.4
65427.3,33581.8
65359.2,33610
65286.9,33624.4
65213.1,33624.4
65140.8,33610
65072.7,33581.8
65042.2,33561.4
65011.3,33540.8
64959.2,33488.7
64918.2,33427.3
64918.2,33427.3
64890,33359.2
64875.6,33286.9
64875.6,33213.1
64890,33140.8
64918.2,33072.7
64959.2,33011.3
64959.2,33011.3
65011.3,32959.2
65072.7,32918.2
65072.7,32918.2
65140.8,32890
65213.1,32875.6
65286.9,32875.6
Z" /> 
<path style="fill:#000000; fill-opacity:1.0; 
stroke:#000000; stroke-width:0; stroke-opacity:1; 
stroke-linecap:round; stroke-linejoin:round;fill-rule:evenodd;"
d="M 63859.2,32890
63927.3,32918.2
63927.3,32918.2
63988.7,32959.2
64040.8,33011.3
64040.8,33011.3
64081.8,33072.7
64110,33140.8
64124.4,33213.1
64124.4,33286.9
64110,33359.2
64081.8,33427.3
64081.8,33427.3
64040.8,33488.7
63988.7,33540.8
63957.8,33561.4
63927.3,33581.8
63859.2,33610
63786.9,33624.4
63713.1,33624.4
63640.8,33610
63572.7,33581.8
63542.2,33561.4
63511.3,33540.8
63459.2,33488.7
63418.2,33427.3
63418.2,33427.3
63390,33359.2
63375.6,33286.9
63375.6,33213.1
63390,33140.8
63418.2,33072.7
63459.2,33011.3
63459.2,33011.3
63511.3,32959.2
63572.7,32918.2
63572.7,32918.2
63640.8,32890
63713.1,32875.6
63786.9,32875.6
Z" /> 
<path style="fill:#000000; fill-opacity:1.0; 
stroke:#000000; stroke-width:0; stroke-opacity:1; 
stroke-linecap:round; stroke-linejoin:round;fill-rule:evenodd;"
d="M 53183.3,32790.9
53251.5,32819.1
53251.5,32819.1
53312.8,32860.1
53364.9,32912.2
53364.9,32912.2
53405.9,32973.6
53434.1,33041.7
53448.5,33114
53448.5,33187.8
53434.1,33260.1
53405.9,33328.3
53405.9,33328.3
53364.9,33389.6
53312.8,33441.7
53281.9,33462.4
53251.5,33482.7
53183.3,33510.9
53111,33525.3
53037.2,33525.3
52964.9,33510.9
52896.8,33482.7
52866.3,33462.4
52835.4,33441.7
52783.3,33389.6
52742.3,33328.3
52742.3,33328.3
52714.1,33260.1
52699.7,33187.8
52699.7,33114
52714.1,33041.7
52742.3,32973.6
52783.3,32912.2
52783.3,32912.2
52835.4,32860.1
52896.8,32819.1
52896.8,32819.1
52964.9,32790.9
53037.2,32776.5
53111,32776.5
Z" /> 
<path style="fill:#000000; fill-opacity:1.0; 
stroke:#000000; stroke-width:0; stroke-opacity:1; 
stroke-linecap:round; stroke-linejoin:round;fill-rule:evenodd;"
d="M 51332,31866.2
51418.1,31901.9
51418.1,31901.9
51495.5,31953.6
51561.4,32019.5
51613.1,32096.9
51613.1,32096.9
51648.8,32183
51666.9,32274.3
51666.9,32367.5
51648.8,32458.8
51627.2,32510.9
51613.1,32544.9
51561.4,32622.3
51495.5,32688.2
51418.1,32739.9
51418.1,32739.9
51418.1,32739.9
51332,32775.6
51240.7,32793.7
51147.5,32793.7
51056.2,32775.6
50970.1,32739.9
50970.1,32739.9
50970.1,32739.9
50892.7,32688.2
50826.8,32622.3
50775.1,32544.9
50761,32510.9
50739.4,32458.8
50721.3,32367.5
50721.3,32274.3
50739.4,32183
50775.1,32096.9
50775.1,32096.9
50826.8,32019.5
50892.7,31953.6
50970.1,31901.9
50970.1,31901.9
51056.2,31866.2
51147.5,31848.1
51240.7,31848.1
Z" /> 
<path style="fill:#000000; fill-opacity:1.0; 
stroke:#000000; stroke-width:0; stroke-opacity:1; 
stroke-linecap:round; stroke-linejoin:round;fill-rule:evenodd;"
d="M 48982.2,31944.9
49012.6,31954.1
49040.7,31969.1
49065.3,31989.3
49085.5,32013.9
49100.5,32042
49109.8,32072.4
49113.1,32106.5
49113.1,32525.3
49109.8,32559.4
49100.5,32589.8
49085.5,32617.9
49065.3,32642.5
49040.7,32662.7
49012.6,32677.7
48982.2,32687
48948.1,32690.3
48529.3,32690.3
48495.2,32687
48464.8,32677.7
48436.7,32662.7
48412.1,32642.5
48391.9,32617.9
48376.9,32589.8
48367.6,32559.4
48364.3,32525.3
48364.3,32106.5
48367.6,32072.4
48376.9,32042
48391.9,32013.9
48412.1,31989.3
48436.7,31969.1
48464.8,31954.1
48495.2,31944.9
48529.3,31941.5
48948.1,31941.5
Z" /> 
<path style="fill:#000000; fill-opacity:1.0; 
stroke:#000000; stroke-width:0; stroke-opacity:1; 
stroke-linecap:round; stroke-linejoin:round;fill-rule:evenodd;"
d="M 65359.2,31890
65427.3,31918.2
65427.3,31918.2
65488.7,31959.2
65540.8,32011.3
65561.1,32041.7
65581.8,32072.7
65610,32140.8
65624.4,32213.1
65624.4,32286.9
65610,32359.2
65581.8,32427.3
65581.8,32427.3
65540.8,32488.7
65488.7,32540.8
65482.6,32544.9
65427.3,32581.8
65359.2,32610
65286.9,32624.4
65213.1,32624.4
65140.8,32610
65072.7,32581.8
65017.4,32544.9
65011.3,32540.8
64959.2,32488.7
64918.2,32427.3
64918.2,32427.3
64890,32359.2
64875.6,32286.9
64875.6,32213.1
64890,32140.8
64918.2,32072.7
64938.9,32041.7
64959.2,32011.3
65011.3,31959.2
65072.7,31918.2
65072.7,31918.2
65140.8,31890
65213.1,31875.6
65286.9,31875.6
Z" /> 
<path style="fill:#000000; fill-opacity:1.0; 
stroke:#000000; stroke-width:0; stroke-opacity:1; 
stroke-linecap:round; stroke-linejoin:round;fill-rule:evenodd;"
d="M 53183.3,31790.9
53251.5,31819.1
53251.5,31819.1
53312.8,31860.1
53364.9,31912.2
53364.9,31912.2
53405.9,31973.6
53434.1,32041.7
53448.5,32114
53448.5,32187.8
53434.1,32260.1
53405.9,32328.3
53405.9,32328.3
53364.9,32389.6
53312.8,32441.7
53287.2,32458.8
53251.5,32482.7
53183.3,32510.9
53111,32525.3
53037.2,32525.3
52964.9,32510.9
52896.8,32482.7
52861,32458.8
52835.4,32441.7
52783.3,32389.6
52742.3,32328.3
52742.3,32328.3
52714.1,32260.1
52699.7,32187.8
52699.7,32114
52714.1,32041.7
52742.3,31973.6
52783.3,31912.2
52783.3,31912.2
52835.4,31860.1
52896.8,31819.1
52896.8,31819.1
52964.9,31790.9
53037.2,31776.5
53111,31776.5
Z" /> 
<path style="fill:#000000; fill-opacity:1.0; 
stroke:#000000; stroke-width:0; stroke-opacity:1; 
stroke-linecap:round; stroke-linejoin:round;fill-rule:evenodd;"
d="M 58507,32409.2
56065.2,32409.2
56065.2,31739.1
58507,31739.1
Z" /> 
<path style="fill:#000000; fill-opacity:1.0; 
stroke:#000000; stroke-width:0; stroke-opacity:1; 
stroke-linecap:round; stroke-linejoin:round;fill-rule:evenodd;"
d="M 65493.5,30878.9
65523.9,30888.2
65552,30903.2
65576.6,30923.4
65596.8,30948
65611.8,30976.1
65621.1,31006.5
65624.4,31040.6
65624.4,31459.4
65621.1,31493.5
65611.8,31523.9
65596.8,31552
65576.6,31576.6
65552,31596.8
65523.9,31611.8
65493.5,31621.1
65459.4,31624.4
65040.6,31624.4
65006.5,31621.1
64976.1,31611.8
64948,31596.8
64923.4,31576.6
64903.2,31552
64888.2,31523.9
64878.9,31493.5
64875.6,31459.4
64875.6,31040.6
64878.9,31006.5
64888.2,30976.1
64903.2,30948
64923.4,30923.4
64948,30903.2
64976.1,30888.2
65006.5,30878.9
65040.6,30875.6
65459.4,30875.6
Z" /> 
<path style="fill:#000000; fill-opacity:1.0; 
stroke:#000000; stroke-width:0; stroke-opacity:1; 
stroke-linecap:round; stroke-linejoin:round;fill-rule:evenodd;"
d="M 59294.4,31621.8
58624.3,31621.8
58624.3,29180
59294.4,29180
Z" /> 
<path style="fill:#000000; fill-opacity:1.0; 
stroke:#000000; stroke-width:0; stroke-opacity:1; 
stroke-linecap:round; stroke-linejoin:round;fill-rule:evenodd;"
d="M 55947.9,31621.8
55277.8,31621.8
55277.8,29180
55947.9,29180
Z" /> 
<path style="fill:#000000; fill-opacity:1.0; 
stroke:#000000; stroke-width:0; stroke-opacity:1; 
stroke-linecap:round; stroke-linejoin:round;fill-rule:evenodd;"
d="M 63019.5,30753.9
63049.9,30763.2
63078,30778.2
63102.6,30798.4
63122.8,30823
63137.8,30851.1
63147.1,30881.5
63150.4,30915.6
63150.4,31334.4
63147.1,31368.5
63137.8,31398.9
63122.8,31427
63102.6,31451.6
63078,31471.8
63049.9,31486.8
63019.5,31496.1
62985.4,31499.4
62566.6,31499.4
62532.5,31496.1
62502.1,31486.8
62474,31471.8
62449.4,31451.6
62429.2,31427
62414.2,31398.9
62404.9,31368.5
62401.6,31334.4
62401.6,30915.6
62404.9,30881.5
62414.2,30851.1
62429.2,30823
62449.4,30798.4
62474,30778.2
62502.1,30763.2
62532.5,30753.9
62566.6,30750.6
62985.4,30750.6
Z" /> 
<path style="fill:#000000; fill-opacity:1.0; 
stroke:#000000; stroke-width:0; stroke-opacity:1; 
stroke-linecap:round; stroke-linejoin:round;fill-rule:evenodd;"
d="M 61885.2,30765
61953.3,30793.2
61953.3,30793.2
62014.7,30834.2
62066.8,30886.3
62076.8,30901.3
62107.8,30947.7
62136,31015.8
62150.4,31088.1
62150.4,31161.9
62136,31234.2
62107.8,31302.3
62107.8,31302.3
62066.8,31363.7
62014.7,31415.8
62014.1,31416.2
61953.3,31456.8
61885.2,31485
61812.9,31499.4
61739.1,31499.4
61666.8,31485
61598.7,31456.8
61537.9,31416.2
61537.3,31415.8
61485.2,31363.7
61444.2,31302.3
61444.2,31302.3
61416,31234.2
61401.6,31161.9
61401.6,31088.1
61416,31015.8
61444.2,30947.7
61475.2,30901.3
61485.2,30886.3
61537.3,30834.2
61598.7,30793.2
61598.7,30793.2
61666.8,30765
61739.1,30750.6
61812.9,30750.6
Z" /> 
<path style="fill:#000000; fill-opacity:1.0; 
stroke:#000000; stroke-width:0; stroke-opacity:1; 
stroke-linecap:round; stroke-linejoin:round;fill-rule:evenodd;"
d="M 53183.3,30205.9
53251.5,30234.1
53251.5,30234.1
53312.8,30275.1
53364.9,30327.2
53376.9,30345.2
53405.9,30388.6
53434.1,30456.7
53448.5,30529
53448.5,30602.8
53434.1,30675.1
53405.9,30743.3
53398.8,30753.9
53364.9,30804.6
53312.8,30856.7
53298.7,30866.2
53251.5,30897.7
53183.3,30925.9
53111,30940.3
53037.2,30940.3
52964.9,30925.9
52896.8,30897.7
52849.5,30866.2
52835.4,30856.7
52783.3,30804.6
52749.4,30753.9
52742.3,30743.3
52714.1,30675.1
52699.7,30602.8
52699.7,30529
52714.1,30456.7
52742.3,30388.6
52771.3,30345.2
52783.3,30327.2
52835.4,30275.1
52896.8,30234.1
52896.8,30234.1
52964.9,30205.9
53037.2,30191.5
53111,30191.5
Z" /> 
<path style="fill:#000000; fill-opacity:1.0; 
stroke:#000000; stroke-width:0; stroke-opacity:1; 
stroke-linecap:round; stroke-linejoin:round;fill-rule:evenodd;"
d="M 51332,29937.1
51418.1,29972.8
51418.1,29972.8
51495.5,30024.5
51561.4,30090.4
51613.1,30167.8
51613.1,30167.8
51648.8,30253.9
51666.9,30345.2
51666.9,30438.3
51648.8,30529.7
51618.5,30602.8
51613.1,30615.7
51561.4,30693.2
51495.5,30759
51418.1,30810.8
51418.1,30810.8
51418.1,30810.8
51332,30846.4
51240.7,30864.6
51147.5,30864.6
51056.2,30846.4
50970.1,30810.8
50970.1,30810.8
50970.1,30810.8
50892.7,30759
50826.8,30693.2
50775.1,30615.7
50769.7,30602.8
50739.4,30529.7
50721.3,30438.3
50721.3,30345.2
50739.4,30253.9
50775.1,30167.8
50775.1,30167.8
50826.8,30090.4
50892.7,30024.5
50970.1,29972.8
50970.1,29972.8
51056.2,29937.1
51147.5,29918.9
51240.7,29918.9
Z" /> 
<path style="fill:#000000; fill-opacity:1.0; 
stroke:#000000; stroke-width:0; stroke-opacity:1; 
stroke-linecap:round; stroke-linejoin:round;fill-rule:evenodd;"
d="M 48982.2,30019.9
49012.6,30029.1
49040.7,30044.1
49065.3,30064.3
49085.5,30088.9
49100.5,30117
49109.8,30147.4
49113.1,30181.5
49113.1,30600.3
49109.8,30634.4
49100.5,30664.8
49085.5,30692.9
49065.3,30717.5
49040.7,30737.7
49012.6,30752.7
48982.2,30762
48948.1,30765.3
48529.3,30765.3
48495.2,30762
48464.8,30752.7
48436.7,30737.7
48412.1,30717.5
48391.9,30692.9
48376.9,30664.8
48367.6,30634.4
48364.3,30600.3
48364.3,30181.5
48367.6,30147.4
48376.9,30117
48391.9,30088.9
48412.1,30064.3
48436.7,30044.1
48464.8,30029.1
48495.2,30019.9
48529.3,30016.5
48948.1,30016.5
Z" /> 
<path style="fill:#000000; fill-opacity:1.0; 
stroke:#000000; stroke-width:0; stroke-opacity:1; 
stroke-linecap:round; stroke-linejoin:round;fill-rule:evenodd;"
d="M 53183.3,29205.9
53251.5,29234.1
53251.5,29234.1
53312.8,29275.1
53364.9,29327.2
53364.9,29327.2
53405.9,29388.6
53434.1,29456.7
53448.5,29529
53448.5,29602.8
53434.1,29675.1
53405.9,29743.3
53405.9,29743.3
53364.9,29804.6
53312.8,29856.7
53281.9,29877.4
53251.5,29897.7
53183.3,29925.9
53111,29940.3
53037.2,29940.3
52964.9,29925.9
52896.8,29897.7
52866.3,29877.4
52835.4,29856.7
52783.3,29804.6
52742.3,29743.3
52742.3,29743.3
52714.1,29675.1
52699.7,29602.8
52699.7,29529
52714.1,29456.7
52742.3,29388.6
52783.3,29327.2
52783.3,29327.2
52835.4,29275.1
52896.8,29234.1
52896.8,29234.1
52964.9,29205.9
53037.2,29191.5
53111,29191.5
Z" /> 
<path style="fill:#000000; fill-opacity:1.0; 
stroke:#000000; stroke-width:0; stroke-opacity:1; 
stroke-linecap:round; stroke-linejoin:round;fill-rule:evenodd;"
d="M 63245.5,29083.9
63275.9,29093.2
63304,29108.2
63328.6,29128.4
63348.8,29153
63363.8,29181.1
63373.1,29211.5
63376.4,29245.6
63376.4,29664.4
63373.1,29698.5
63363.8,29728.9
63348.8,29757
63328.6,29781.6
63304,29801.8
63275.9,29816.8
63245.5,29826.1
63211.4,29829.4
62792.6,29829.4
62758.5,29826.1
62728.1,29816.8
62700,29801.8
62675.4,29781.6
62655.2,29757
62640.2,29728.9
62630.9,29698.5
62627.6,29664.4
62627.6,29245.6
62630.9,29211.5
62640.2,29181.1
62655.2,29153
62675.4,29128.4
62700,29108.2
62728.1,29093.2
62758.5,29083.9
62792.6,29080.6
63211.4,29080.6
Z" /> 
<path style="fill:#000000; fill-opacity:1.0; 
stroke:#000000; stroke-width:0; stroke-opacity:1; 
stroke-linecap:round; stroke-linejoin:round;fill-rule:evenodd;"
d="M 58507,29062.7
56065.2,29062.7
56065.2,28392.6
58507,28392.6
Z" /> 
<path style="fill:#000000; fill-opacity:1.0; 
stroke:#000000; stroke-width:0; stroke-opacity:1; 
stroke-linecap:round; stroke-linejoin:round;fill-rule:evenodd;"
d="M 63111.2,28095
63179.3,28123.2
63209.8,28143.6
63240.7,28164.2
63292.8,28216.3
63292.8,28216.3
63333.8,28277.7
63362,28345.8
63376.4,28418.1
63376.4,28491.9
63362,28564.2
63333.8,28632.3
63333.8,28632.3
63292.8,28693.7
63240.7,28745.8
63209.8,28766.4
63179.3,28786.8
63111.2,28815
63038.9,28829.4
62965.1,28829.4
62892.8,28815
62824.7,28786.8
62794.2,28766.4
62763.3,28745.8
62711.2,28693.7
62670.2,28632.3
62670.2,28632.3
62642,28564.2
62627.6,28491.9
62627.6,28418.1
62642,28345.8
62670.2,28277.7
62711.2,28216.3
62711.2,28216.3
62763.3,28164.2
62794.2,28143.6
62824.7,28123.2
62892.8,28095
62965.1,28080.6
63038.9,28080.6
Z" /> 
<path style="fill:#000000; fill-opacity:1.0; 
stroke:#000000; stroke-width:0; stroke-opacity:1; 
stroke-linecap:round; stroke-linejoin:round;fill-rule:evenodd;"
d="M 52191.2,27784
52259.3,27812.2
52285.4,27829.6
52320.7,27853.2
52372.8,27905.3
52372.8,27905.3
52413.8,27966.7
52442,28034.8
52456.4,28107.1
52456.4,28180.9
52442,28253.2
52413.8,28321.3
52401.1,28340.3
52372.8,28382.7
52320.7,28434.8
52289.8,28455.4
52259.3,28475.8
52191.2,28504
52118.9,28518.4
52045.1,28518.4
51972.8,28504
51904.7,28475.8
51874.2,28455.4
51843.3,28434.8
51791.2,28382.7
51762.9,28340.3
51750.2,28321.3
51722,28253.2
51707.6,28180.9
51707.6,28107.1
51722,28034.8
51750.2,27966.7
51791.2,27905.3
51791.2,27905.3
51843.3,27853.2
51878.6,27829.6
51904.7,27812.2
51972.8,27784
52045.1,27769.6
52118.9,27769.6
Z" /> 
<path style="fill:#000000; fill-opacity:1.0; 
stroke:#000000; stroke-width:0; stroke-opacity:1; 
stroke-linecap:round; stroke-linejoin:round;fill-rule:evenodd;"
d="M 51207,27784
51275.1,27812.2
51301.1,27829.6
51336.4,27853.2
51388.6,27905.3
51388.6,27905.3
51429.5,27966.7
51457.8,28034.8
51472.2,28107.1
51472.2,28180.9
51457.8,28253.2
51429.5,28321.3
51416.9,28340.3
51388.6,28382.7
51336.4,28434.8
51305.6,28455.4
51275.1,28475.8
51207,28504
51134.6,28518.4
51060.9,28518.4
50988.5,28504
50920.4,28475.8
50889.9,28455.4
50859.1,28434.8
50806.9,28382.7
50778.6,28340.3
50766,28321.3
50737.7,28253.2
50723.3,28180.9
50723.3,28107.1
50737.7,28034.8
50766,27966.7
50806.9,27905.3
50806.9,27905.3
50859.1,27853.2
50894.4,27829.6
50920.4,27812.2
50988.5,27784
51060.9,27769.6
51134.6,27769.6
Z" /> 
<path style="fill:#000000; fill-opacity:1.0; 
stroke:#000000; stroke-width:0; stroke-opacity:1; 
stroke-linecap:round; stroke-linejoin:round;fill-rule:evenodd;"
d="M 65409.2,27640
65477.3,27668.2
65503.5,27685.7
65538.7,27709.2
65590.8,27761.3
65590.8,27761.3
65631.8,27822.7
65660,27890.8
65674.4,27963.1
65674.4,28036.9
65660,28109.2
65631.8,28177.3
65629.4,28180.9
65590.8,28238.7
65538.7,28290.8
65528.4,28297.7
65477.3,28331.8
65409.2,28360
65336.9,28374.4
65263.1,28374.4
65190.8,28360
65122.7,28331.8
65071.6,28297.7
65061.3,28290.8
65009.2,28238.7
64970.6,28180.9
64968.2,28177.3
64940,28109.2
64925.6,28036.9
64925.6,27963.1
64940,27890.8
64968.2,27822.7
65009.2,27761.3
65009.2,27761.3
65061.3,27709.2
65096.5,27685.7
65122.7,27668.2
65190.8,27640
65263.1,27625.6
65336.9,27625.6
Z" /> 
<path style="fill:#000000; fill-opacity:1.0; 
stroke:#000000; stroke-width:0; stroke-opacity:1; 
stroke-linecap:round; stroke-linejoin:round;fill-rule:evenodd;"
d="M 48974.1,27605.9
49042.2,27634.1
49072.7,27654.5
49103.5,27675.1
49155.7,27727.2
49163,27738.2
49196.6,27788.6
49224.9,27856.7
49239.3,27929
49239.3,28002.8
49224.9,28075.1
49196.6,28143.3
49196.6,28143.3
49155.7,28204.6
49103.5,28256.7
49072.7,28277.4
49042.2,28297.7
48974.1,28325.9
48901.7,28340.3
48828,28340.3
48755.6,28325.9
48687.5,28297.7
48657,28277.4
48626.2,28256.7
48574,28204.6
48533.1,28143.3
48533.1,28143.3
48504.8,28075.1
48490.4,28002.8
48490.4,27929
48504.8,27856.7
48533.1,27788.6
48566.7,27738.2
48574,27727.2
48626.2,27675.1
48657,27654.5
48687.5,27634.1
48755.6,27605.9
48828,27591.5
48901.7,27591.5
Z" /> 
<path style="fill:#000000; fill-opacity:1.0; 
stroke:#000000; stroke-width:0; stroke-opacity:1; 
stroke-linecap:round; stroke-linejoin:round;fill-rule:evenodd;"
d="M 49958.3,27605.9
50026.5,27634.1
50056.9,27654.5
50087.8,27675.1
50139.9,27727.2
50147.3,27738.2
50180.9,27788.6
50209.1,27856.7
50223.5,27929
50223.5,28002.8
50209.1,28075.1
50180.9,28143.3
50180.9,28143.3
50139.9,28204.6
50087.8,28256.7
50056.9,28277.4
50026.5,28297.7
49958.3,28325.9
49886,28340.3
49812.2,28340.3
49739.9,28325.9
49671.8,28297.7
49641.3,28277.4
49610.4,28256.7
49558.3,28204.6
49517.3,28143.3
49517.3,28143.3
49489.1,28075.1
49474.7,28002.8
49474.7,27929
49489.1,27856.7
49517.3,27788.6
49550.9,27738.2
49558.3,27727.2
49610.4,27675.1
49641.3,27654.5
49671.8,27634.1
49739.9,27605.9
49812.2,27591.5
49886,27591.5
Z" /> 
<path style="fill:#000000; fill-opacity:1.0; 
stroke:#000000; stroke-width:0; stroke-opacity:1; 
stroke-linecap:round; stroke-linejoin:round;fill-rule:evenodd;"
d="M 54309.2,27150
54377.3,27178.2
54377.3,27178.2
54438.7,27219.2
54490.8,27271.3
54500.8,27286.3
54531.8,27332.7
54560,27400.8
54574.4,27473.1
54574.4,27546.9
54560,27619.2
54531.8,27687.3
54527.6,27693.7
54490.8,27748.7
54438.7,27800.8
54417.4,27815
54377.3,27841.8
54309.2,27870
54236.9,27884.4
54163.1,27884.4
54090.8,27870
54022.7,27841.8
53982.6,27815
53961.3,27800.8
53909.2,27748.7
53872.4,27693.7
53868.2,27687.3
53840,27619.2
53825.6,27546.9
53825.6,27473.1
53840,27400.8
53868.2,27332.7
53899.2,27286.3
53909.2,27271.3
53961.3,27219.2
54022.7,27178.2
54022.7,27178.2
54090.8,27150
54163.1,27135.6
54236.9,27135.6
Z" /> 
<path style="fill:#000000; fill-opacity:1.0; 
stroke:#000000; stroke-width:0; stroke-opacity:1; 
stroke-linecap:round; stroke-linejoin:round;fill-rule:evenodd;"
d="M 55943.5,27138.9
55973.9,27148.2
56002,27163.2
56026.6,27183.4
56046.8,27208
56061.8,27236.1
56071.1,27266.5
56074.4,27300.6
56074.4,27719.4
56071.1,27753.5
56061.8,27783.9
56046.8,27812
56026.6,27836.6
56002,27856.8
55973.9,27871.8
55943.5,27881.1
55909.4,27884.4
55490.6,27884.4
55456.5,27881.1
55426.1,27871.8
55398,27856.8
55373.4,27836.6
55353.2,27812
55338.2,27783.9
55328.9,27753.5
55325.6,27719.4
55325.6,27300.6
55328.9,27266.5
55338.2,27236.1
55353.2,27208
55373.4,27183.4
55398,27163.2
55426.1,27148.2
55456.5,27138.9
55490.6,27135.6
55909.4,27135.6
Z" /> 
<path style="fill:#000000; fill-opacity:1.0; 
stroke:#000000; stroke-width:0; stroke-opacity:1; 
stroke-linecap:round; stroke-linejoin:round;fill-rule:evenodd;"
d="M 63111.2,27095
63179.3,27123.2
63209.8,27143.6
63240.7,27164.2
63292.8,27216.3
63307,27237.6
63333.8,27277.7
63362,27345.8
63376.4,27418.1
63376.4,27491.9
63362,27564.2
63333.8,27632.3
63328.7,27640
63292.8,27693.7
63240.7,27745.8
63236.4,27748.7
63179.3,27786.8
63111.2,27815
63038.9,27829.4
62965.1,27829.4
62892.8,27815
62824.7,27786.8
62767.6,27748.7
62763.3,27745.8
62711.2,27693.7
62675.3,27640
62670.2,27632.3
62642,27564.2
62627.6,27491.9
62627.6,27418.1
62642,27345.8
62670.2,27277.7
62697,27237.6
62711.2,27216.3
62763.3,27164.2
62794.2,27143.6
62824.7,27123.2
62892.8,27095
62965.1,27080.6
63038.9,27080.6
Z" /> 
<path style="fill:#000000; fill-opacity:1.0; 
stroke:#000000; stroke-width:0; stroke-opacity:1; 
stroke-linecap:round; stroke-linejoin:round;fill-rule:evenodd;"
d="M 60850.5,27075.9
60880.9,27085.2
60909,27100.2
60933.6,27120.4
60953.8,27145
60968.8,27173.1
60978.1,27203.5
60981.4,27237.6
60981.4,27656.4
60978.1,27690.5
60968.8,27720.9
60953.8,27749
60933.6,27773.6
60909,27793.8
60880.9,27808.8
60850.5,27818.1
60816.4,27821.4
60397.6,27821.4
60363.5,27818.1
60333.1,27808.8
60305,27793.8
60280.4,27773.6
60260.2,27749
60245.2,27720.9
60235.9,27690.5
60232.6,27656.4
60232.6,27237.6
60235.9,27203.5
60245.2,27173.1
60260.2,27145
60280.4,27120.4
60305,27100.2
60333.1,27085.2
60363.5,27075.9
60397.6,27072.6
60816.4,27072.6
Z" /> 
<path style="fill:#000000; fill-opacity:1.0; 
stroke:#000000; stroke-width:0; stroke-opacity:1; 
stroke-linecap:round; stroke-linejoin:round;fill-rule:evenodd;"
d="M 59716.2,27087
59784.3,27115.2
59792.1,27120.4
59845.7,27156.2
59897.8,27208.3
59904.8,27218.8
59938.8,27269.7
59967,27337.8
59981.4,27410.1
59981.4,27483.9
59967,27556.2
59938.8,27624.3
59918.4,27654.8
59897.8,27685.7
59845.7,27737.8
59845.1,27738.2
59784.3,27778.8
59716.2,27807
59643.9,27821.4
59570.1,27821.4
59497.8,27807
59429.7,27778.8
59368.9,27738.2
59368.3,27737.8
59316.2,27685.7
59295.6,27654.8
59275.2,27624.3
59247,27556.2
59232.6,27483.9
59232.6,27410.1
59247,27337.8
59275.2,27269.7
59309.2,27218.8
59316.2,27208.3
59368.3,27156.2
59421.9,27120.4
59429.7,27115.2
59497.8,27087
59570.1,27072.6
59643.9,27072.6
Z" /> 
<path style="fill:#000000; fill-opacity:1.0; 
stroke:#000000; stroke-width:0; stroke-opacity:1; 
stroke-linecap:round; stroke-linejoin:round;fill-rule:evenodd;"
d="M 58716.2,27087
58784.3,27115.2
58792.1,27120.4
58845.7,27156.2
58897.8,27208.3
58904.8,27218.8
58938.8,27269.7
58967,27337.8
58981.4,27410.1
58981.4,27483.9
58967,27556.2
58938.8,27624.3
58918.4,27654.8
58897.8,27685.7
58845.7,27737.8
58845.1,27738.2
58784.3,27778.8
58716.2,27807
58643.9,27821.4
58570.1,27821.4
58497.8,27807
58429.7,27778.8
58368.9,27738.2
58368.3,27737.8
58316.2,27685.7
58295.6,27654.8
58275.2,27624.3
58247,27556.2
58232.6,27483.9
58232.6,27410.1
58247,27337.8
58275.2,27269.7
58309.2,27218.8
58316.2,27208.3
58368.3,27156.2
58421.9,27120.4
58429.7,27115.2
58497.8,27087
58570.1,27072.6
58643.9,27072.6
Z" /> 
<path style="fill:#000000; fill-opacity:1.0; 
stroke:#000000; stroke-width:0; stroke-opacity:1; 
stroke-linecap:round; stroke-linejoin:round;fill-rule:evenodd;"
d="M 57716.2,27087
57784.3,27115.2
57792.1,27120.4
57845.7,27156.2
57897.8,27208.3
57904.8,27218.8
57938.8,27269.7
57967,27337.8
57981.4,27410.1
57981.4,27483.9
57967,27556.2
57938.8,27624.3
57918.4,27654.8
57897.8,27685.7
57845.7,27737.8
57845.1,27738.2
57784.3,27778.8
57716.2,27807
57643.9,27821.4
57570.1,27821.4
57497.8,27807
57429.7,27778.8
57368.9,27738.2
57368.3,27737.8
57316.2,27685.7
57295.6,27654.8
57275.2,27624.3
57247,27556.2
57232.6,27483.9
57232.6,27410.1
57247,27337.8
57275.2,27269.7
57309.2,27218.8
57316.2,27208.3
57368.3,27156.2
57421.9,27120.4
57429.7,27115.2
57497.8,27087
57570.1,27072.6
57643.9,27072.6
Z" /> 
<path style="fill:#000000; fill-opacity:1.0; 
stroke:#000000; stroke-width:0; stroke-opacity:1; 
stroke-linecap:round; stroke-linejoin:round;fill-rule:evenodd;"
d="M 65409.2,26640
65477.3,26668.2
65477.3,26668.2
65538.7,26709.2
65590.8,26761.3
65595.8,26768.8
65631.8,26822.7
65660,26890.8
65674.4,26963.1
65674.4,27036.9
65660,27109.2
65631.8,27177.3
65627.8,27183.4
65590.8,27238.7
65538.7,27290.8
65524,27300.6
65477.3,27331.8
65409.2,27360
65336.9,27374.4
65263.1,27374.4
65190.8,27360
65122.7,27331.8
65076,27300.6
65061.3,27290.8
65009.2,27238.7
64972.2,27183.4
64968.2,27177.3
64940,27109.2
64925.6,27036.9
64925.6,26963.1
64940,26890.8
64968.2,26822.7
65004.2,26768.8
65009.2,26761.3
65061.3,26709.2
65122.7,26668.2
65122.7,26668.2
65190.8,26640
65263.1,26625.6
65336.9,26625.6
Z" /> 
<path style="fill:#000000; fill-opacity:1.0; 
stroke:#000000; stroke-width:0; stroke-opacity:1; 
stroke-linecap:round; stroke-linejoin:round;fill-rule:evenodd;"
d="M 52187.2,26518
52255.3,26546.2
52285.8,26566.6
52316.7,26587.2
52368.8,26639.3
52368.8,26639.3
52409.8,26700.7
52438,26768.8
52452.4,26841.1
52452.4,26914.9
52438,26987.2
52409.8,27055.3
52392.9,27080.6
52368.8,27116.7
52316.7,27168.8
52302.6,27178.2
52255.3,27209.8
52187.2,27238
52114.9,27252.4
52041.1,27252.4
51968.8,27238
51900.7,27209.8
51853.4,27178.2
51839.3,27168.8
51787.2,27116.7
51763.1,27080.6
51746.2,27055.3
51718,26987.2
51703.6,26914.9
51703.6,26841.1
51718,26768.8
51746.2,26700.7
51787.2,26639.3
51787.2,26639.3
51839.3,26587.2
51870.2,26566.6
51900.7,26546.2
51968.8,26518
52041.1,26503.6
52114.9,26503.6
Z" /> 
<path style="fill:#000000; fill-opacity:1.0; 
stroke:#000000; stroke-width:0; stroke-opacity:1; 
stroke-linecap:round; stroke-linejoin:round;fill-rule:evenodd;"
d="M 51187.2,26518
51255.3,26546.2
51285.8,26566.6
51316.7,26587.2
51368.8,26639.3
51368.8,26639.3
51409.8,26700.7
51438,26768.8
51452.4,26841.1
51452.4,26914.9
51438,26987.2
51409.8,27055.3
51392.9,27080.6
51368.8,27116.7
51316.7,27168.8
51302.6,27178.2
51255.3,27209.8
51187.2,27238
51114.9,27252.4
51041.1,27252.4
50968.8,27238
50900.7,27209.8
50853.4,27178.2
50839.3,27168.8
50787.2,27116.7
50763.1,27080.6
50746.2,27055.3
50718,26987.2
50703.6,26914.9
50703.6,26841.1
50718,26768.8
50746.2,26700.7
50787.2,26639.3
50787.2,26639.3
50839.3,26587.2
50870.2,26566.6
50900.7,26546.2
50968.8,26518
51041.1,26503.6
51114.9,26503.6
Z" /> 
<path style="fill:#000000; fill-opacity:1.0; 
stroke:#000000; stroke-width:0; stroke-opacity:1; 
stroke-linecap:round; stroke-linejoin:round;fill-rule:evenodd;"
d="M 54443.5,26138.9
54473.9,26148.2
54502,26163.2
54526.6,26183.4
54546.8,26208
54561.8,26236.1
54571.1,26266.5
54574.4,26300.6
54574.4,26719.4
54571.1,26753.5
54561.8,26783.9
54546.8,26812
54526.6,26836.6
54502,26856.8
54473.9,26871.8
54443.5,26881.1
54409.4,26884.4
53990.6,26884.4
53956.5,26881.1
53926.1,26871.8
53898,26856.8
53873.4,26836.6
53853.2,26812
53838.2,26783.9
53828.9,26753.5
53825.6,26719.4
53825.6,26300.6
53828.9,26266.5
53838.2,26236.1
53853.2,26208
53873.4,26183.4
53898,26163.2
53926.1,26148.2
53956.5,26138.9
53990.6,26135.6
54409.4,26135.6
Z" /> 
<path style="fill:#000000; fill-opacity:1.0; 
stroke:#000000; stroke-width:0; stroke-opacity:1; 
stroke-linecap:round; stroke-linejoin:round;fill-rule:evenodd;"
d="M 55809.2,26150
55877.3,26178.2
55877.3,26178.2
55938.7,26219.2
55990.8,26271.3
55990.8,26271.3
56031.8,26332.7
56060,26400.8
56074.4,26473.1
56074.4,26546.9
56060,26619.2
56031.8,26687.3
56017.2,26709.2
55990.8,26748.7
55938.7,26800.8
55938.1,26801.2
55877.3,26841.8
55809.2,26870
55736.9,26884.4
55663.1,26884.4
55590.8,26870
55522.7,26841.8
55461.9,26801.2
55461.3,26800.8
55409.2,26748.7
55382.8,26709.2
55368.2,26687.3
55340,26619.2
55325.6,26546.9
55325.6,26473.1
55340,26400.8
55368.2,26332.7
55409.2,26271.3
55409.2,26271.3
55461.3,26219.2
55522.7,26178.2
55522.7,26178.2
55590.8,26150
55663.1,26135.6
55736.9,26135.6
Z" /> 
<path style="fill:#000000; fill-opacity:1.0; 
stroke:#000000; stroke-width:0; stroke-opacity:1; 
stroke-linecap:round; stroke-linejoin:round;fill-rule:evenodd;"
d="M 59109.2,25640
59177.3,25668.2
59206,25687.3
59238.7,25709.2
59290.8,25761.3
59290.8,25761.3
59331.8,25822.7
59360,25890.8
59374.4,25963.1
59374.4,26036.9
59360,26109.2
59331.8,26177.3
59327.8,26183.4
59290.8,26238.7
59238.7,26290.8
59224,26300.6
59177.3,26331.8
59109.2,26360
59036.9,26374.4
58963.1,26374.4
58890.8,26360
58822.7,26331.8
58776,26300.6
58761.3,26290.8
58709.2,26238.7
58672.2,26183.4
58668.2,26177.3
58640,26109.2
58625.6,26036.9
58625.6,25963.1
58640,25890.8
58668.2,25822.7
58709.2,25761.3
58709.2,25761.3
58761.3,25709.2
58794,25687.3
58822.7,25668.2
58890.8,25640
58963.1,25625.6
59036.9,25625.6
Z" /> 
<path style="fill:#000000; fill-opacity:1.0; 
stroke:#000000; stroke-width:0; stroke-opacity:1; 
stroke-linecap:round; stroke-linejoin:round;fill-rule:evenodd;"
d="M 60109.2,25640
60177.3,25668.2
60206,25687.3
60238.7,25709.2
60290.8,25761.3
60290.8,25761.3
60331.8,25822.7
60360,25890.8
60374.4,25963.1
60374.4,26036.9
60360,26109.2
60331.8,26177.3
60327.8,26183.4
60290.8,26238.7
60238.7,26290.8
60224,26300.6
60177.3,26331.8
60109.2,26360
60036.9,26374.4
59963.1,26374.4
59890.8,26360
59822.7,26331.8
59776,26300.6
59761.3,26290.8
59709.2,26238.7
59672.2,26183.4
59668.2,26177.3
59640,26109.2
59625.6,26036.9
59625.6,25963.1
59640,25890.8
59668.2,25822.7
59709.2,25761.3
59709.2,25761.3
59761.3,25709.2
59794,25687.3
59822.7,25668.2
59890.8,25640
59963.1,25625.6
60036.9,25625.6
Z" /> 
<path style="fill:#000000; fill-opacity:1.0; 
stroke:#000000; stroke-width:0; stroke-opacity:1; 
stroke-linecap:round; stroke-linejoin:round;fill-rule:evenodd;"
d="M 61109.2,25640
61177.3,25668.2
61206,25687.3
61238.7,25709.2
61290.8,25761.3
61290.8,25761.3
61331.8,25822.7
61360,25890.8
61374.4,25963.1
61374.4,26036.9
61360,26109.2
61331.8,26177.3
61327.8,26183.4
61290.8,26238.7
61238.7,26290.8
61224,26300.6
61177.3,26331.8
61109.2,26360
61036.9,26374.4
60963.1,26374.4
60890.8,26360
60822.7,26331.8
60776,26300.6
60761.3,26290.8
60709.2,26238.7
60672.2,26183.4
60668.2,26177.3
60640,26109.2
60625.6,26036.9
60625.6,25963.1
60640,25890.8
60668.2,25822.7
60709.2,25761.3
60709.2,25761.3
60761.3,25709.2
60794,25687.3
60822.7,25668.2
60890.8,25640
60963.1,25625.6
61036.9,25625.6
Z" /> 
<path style="fill:#000000; fill-opacity:1.0; 
stroke:#000000; stroke-width:0; stroke-opacity:1; 
stroke-linecap:round; stroke-linejoin:round;fill-rule:evenodd;"
d="M 55809.2,25150
55877.3,25178.2
55877.3,25178.2
55938.7,25219.2
55990.8,25271.3
55990.8,25271.3
56031.8,25332.7
56060,25400.8
56074.4,25473.1
56074.4,25546.9
56060,25619.2
56031.8,25687.3
56031.8,25687.3
55990.8,25748.7
55938.7,25800.8
55907.8,25821.4
55877.3,25841.8
55809.2,25870
55736.9,25884.4
55663.1,25884.4
55590.8,25870
55522.7,25841.8
55492.2,25821.4
55461.3,25800.8
55409.2,25748.7
55368.2,25687.3
55368.2,25687.3
55340,25619.2
55325.6,25546.9
55325.6,25473.1
55340,25400.8
55368.2,25332.7
55409.2,25271.3
55409.2,25271.3
55461.3,25219.2
55522.7,25178.2
55522.7,25178.2
55590.8,25150
55663.1,25135.6
55736.9,25135.6
Z" /> 
<path style="fill:#000000; fill-opacity:1.0; 
stroke:#000000; stroke-width:0; stroke-opacity:1; 
stroke-linecap:round; stroke-linejoin:round;fill-rule:evenodd;"
d="M 50999.2,25140
51067.3,25168.2
51082.3,25178.2
51128.7,25209.2
51180.8,25261.3
51187.5,25271.3
51221.8,25322.7
51250,25390.8
51264.4,25463.1
51264.4,25536.9
51250,25609.2
51221.8,25677.3
51201.4,25707.8
51180.8,25738.7
51128.7,25790.8
51097.8,25811.4
51067.3,25831.8
50999.2,25860
50926.9,25874.4
50853.1,25874.4
50780.8,25860
50712.7,25831.8
50682.2,25811.4
50651.3,25790.8
50599.2,25738.7
50578.6,25707.8
50558.2,25677.3
50530,25609.2
50515.6,25536.9
50515.6,25463.1
50530,25390.8
50558.2,25322.7
50592.5,25271.3
50599.2,25261.3
50651.3,25209.2
50697.7,25178.2
50712.7,25168.2
50780.8,25140
50853.1,25125.6
50926.9,25125.6
Z" /> 
<path style="fill:#000000; fill-opacity:1.0; 
stroke:#000000; stroke-width:0; stroke-opacity:1; 
stroke-linecap:round; stroke-linejoin:round;fill-rule:evenodd;"
d="M 49999.2,25140
50067.3,25168.2
50082.3,25178.2
50128.7,25209.2
50180.8,25261.3
50187.5,25271.3
50221.8,25322.7
50250,25390.8
50264.4,25463.1
50264.4,25536.9
50250,25609.2
50221.8,25677.3
50201.4,25707.8
50180.8,25738.7
50128.7,25790.8
50097.8,25811.4
50067.3,25831.8
49999.2,25860
49926.9,25874.4
49853.1,25874.4
49780.8,25860
49712.7,25831.8
49682.2,25811.4
49651.3,25790.8
49599.2,25738.7
49578.6,25707.8
49558.2,25677.3
49530,25609.2
49515.6,25536.9
49515.6,25463.1
49530,25390.8
49558.2,25322.7
49592.5,25271.3
49599.2,25261.3
49651.3,25209.2
49697.7,25178.2
49712.7,25168.2
49780.8,25140
49853.1,25125.6
49926.9,25125.6
Z" /> 
<path style="fill:#000000; fill-opacity:1.0; 
stroke:#000000; stroke-width:0; stroke-opacity:1; 
stroke-linecap:round; stroke-linejoin:round;fill-rule:evenodd;"
d="M 58109.2,25140
58177.3,25168.2
58192.3,25178.2
58238.7,25209.2
58290.8,25261.3
58297.5,25271.3
58331.8,25322.7
58360,25390.8
58374.4,25463.1
58374.4,25536.9
58360,25609.2
58331.8,25677.3
58311.4,25707.8
58290.8,25738.7
58238.7,25790.8
58207.8,25811.4
58177.3,25831.8
58109.2,25860
58036.9,25874.4
57963.1,25874.4
57890.8,25860
57822.7,25831.8
57792.2,25811.4
57761.3,25790.8
57709.2,25738.7
57688.6,25707.8
57668.2,25677.3
57640,25609.2
57625.6,25536.9
57625.6,25463.1
57640,25390.8
57668.2,25322.7
57702.5,25271.3
57709.2,25261.3
57761.3,25209.2
57807.7,25178.2
57822.7,25168.2
57890.8,25140
57963.1,25125.6
58036.9,25125.6
Z" /> 
<path style="fill:#000000; fill-opacity:1.0; 
stroke:#000000; stroke-width:0; stroke-opacity:1; 
stroke-linecap:round; stroke-linejoin:round;fill-rule:evenodd;"
d="M 57109.2,25140
57177.3,25168.2
57192.3,25178.2
57238.7,25209.2
57290.8,25261.3
57297.5,25271.3
57331.8,25322.7
57360,25390.8
57374.4,25463.1
57374.4,25536.9
57360,25609.2
57331.8,25677.3
57311.4,25707.8
57290.8,25738.7
57238.7,25790.8
57207.8,25811.4
57177.3,25831.8
57109.2,25860
57036.9,25874.4
56963.1,25874.4
56890.8,25860
56822.7,25831.8
56792.2,25811.4
56761.3,25790.8
56709.2,25738.7
56688.6,25707.8
56668.2,25677.3
56640,25609.2
56625.6,25536.9
56625.6,25463.1
56640,25390.8
56668.2,25322.7
56702.5,25271.3
56709.2,25261.3
56761.3,25209.2
56807.7,25178.2
56822.7,25168.2
56890.8,25140
56963.1,25125.6
57036.9,25125.6
Z" /> 
<path style="fill:#000000; fill-opacity:1.0; 
stroke:#000000; stroke-width:0; stroke-opacity:1; 
stroke-linecap:round; stroke-linejoin:round;fill-rule:evenodd;"
d="M 63509.2,25140
63577.3,25168.2
63592.3,25178.2
63638.7,25209.2
63690.8,25261.3
63697.5,25271.3
63731.8,25322.7
63760,25390.8
63774.4,25463.1
63774.4,25536.9
63760,25609.2
63731.8,25677.3
63711.4,25707.8
63690.8,25738.7
63638.7,25790.8
63607.8,25811.4
63577.3,25831.8
63509.2,25860
63436.9,25874.4
63363.1,25874.4
63290.8,25860
63222.7,25831.8
63192.2,25811.4
63161.3,25790.8
63109.2,25738.7
63088.6,25707.8
63068.2,25677.3
63040,25609.2
63025.6,25536.9
63025.6,25463.1
63040,25390.8
63068.2,25322.7
63102.5,25271.3
63109.2,25261.3
63161.3,25209.2
63207.7,25178.2
63222.7,25168.2
63290.8,25140
63363.1,25125.6
63436.9,25125.6
Z" /> 
<path style="fill:#000000; fill-opacity:1.0; 
stroke:#000000; stroke-width:0; stroke-opacity:1; 
stroke-linecap:round; stroke-linejoin:round;fill-rule:evenodd;"
d="M 64509.2,25140
64577.3,25168.2
64592.3,25178.2
64638.7,25209.2
64690.8,25261.3
64697.5,25271.3
64731.8,25322.7
64760,25390.8
64774.4,25463.1
64774.4,25536.9
64760,25609.2
64731.8,25677.3
64711.4,25707.8
64690.8,25738.7
64638.7,25790.8
64607.8,25811.4
64577.3,25831.8
64509.2,25860
64436.9,25874.4
64363.1,25874.4
64290.8,25860
64222.7,25831.8
64192.2,25811.4
64161.3,25790.8
64109.2,25738.7
64088.6,25707.8
64068.2,25677.3
64040,25609.2
64025.6,25536.9
64025.6,25463.1
64040,25390.8
64068.2,25322.7
64102.5,25271.3
64109.2,25261.3
64161.3,25209.2
64207.7,25178.2
64222.7,25168.2
64290.8,25140
64363.1,25125.6
64436.9,25125.6
Z" /> 
</g>
<g style="fill:#000000; fill-opacity:1.0; 
stroke:#000000; stroke-width:19.685; stroke-opacity:1; 
stroke-linecap:round; stroke-linejoin:round;">
</g>
<g style="fill:#000000; fill-opacity:0.0; 
stroke:#000000; stroke-width:19.685; stroke-opacity:1; 
stroke-linecap:round; stroke-linejoin:round;">
<path d="M49212 37401
L64960 37401
" />
<path d="M47244 35433
L49212 37401
" />
<path d="M49212 23622
L64960 23622
" />
<path d="M47244 25590
L49212 23622
" />
<path d="M66929 35433
L64960 37401
" />
<path d="M66929 25590
L64960 23622
" />
<path d="M66929 25590
L66929 35433
" />
<path d="M47244 25590
L47244 35433
" />
<g >
</g>
<g >
</g>
<g >
</g>
<g >
</g>
<g >
</g>
<g >
</g>
<g >
</g>
<g >
</g>
<g >
</g>
<g >
</g>
<g >
</g>
<g >
</g>
<g >
</g>
<g >
</g>
<g >
</g>
<g >
</g>
<g >
</g>
<g >
</g>
<g >
</g>
<g >
</g>
<g >
</g>
<g >
</g>
<g >
</g>
<g >
</g>
<g >
</g>
<g >
</g>
<g >
</g>
<g >
</g>
<g >
</g>
<g >
</g>
<g >
</g>
<g >
</g>
</g> 
</svg>
